<svg width="103" height="91" viewBox="0 0 103 91" fill="none" xmlns="http://www.w3.org/2000/svg">
<g clip-path="url(#clip0_367_17861)">
<path d="M53.242 45.7806C53.242 46.7838 52.4351 47.598 51.4246 47.598H44.1622V59.8401L51.4318 65.6267L50.2978 66.5282C49.5127 67.1606 49.3818 68.302 50.007 69.0871C50.087 69.1889 50.1815 69.2834 50.2832 69.3634L41.2107 62.1373C40.7818 61.7884 40.5273 61.2649 40.5273 60.7125V45.7806C40.5273 44.7773 41.3415 43.9631 42.3448 43.9631H51.4246C52.4351 43.9631 53.242 44.7773 53.242 45.7806Z" fill="#0F3780"/>
<path d="M52.849 69.0868C52.7691 69.1886 52.6745 69.2831 52.5728 69.3631L52.5582 69.3776C52.5582 69.3776 52.551 69.3776 52.551 69.3849C52.4783 69.4358 52.4056 69.4867 52.3329 69.5303C52.1293 69.6466 51.9112 69.7193 51.6931 69.7484C51.6059 69.7629 51.5259 69.7702 51.4387 69.7702H51.4169C51.3297 69.7702 51.2497 69.7629 51.1625 69.7484C50.9371 69.7193 50.719 69.6466 50.5227 69.5303C50.45 69.4867 50.3773 69.4358 50.3046 69.3849L50.2828 69.3631C50.181 69.2831 50.0865 69.1886 50.0066 69.0868C49.3814 68.3017 49.5122 67.1604 50.2974 66.5279L51.4314 65.6265L52.5582 66.5279C53.3434 67.1604 53.4742 68.3017 52.849 69.0868Z" fill="#0A2555"/>
<path d="M62.3284 45.7803V60.7122C62.3284 61.2647 62.0739 61.7881 61.645 62.1371L52.5725 69.3631C52.6742 69.2831 52.7688 69.1886 52.8487 69.0869C53.4739 68.3017 53.3431 67.1604 52.5579 66.5279L51.4311 65.6265L58.6935 59.8398V47.5977H51.4239C50.4206 47.5977 49.6064 46.7835 49.6064 45.7803C49.6064 44.7771 50.4206 43.9629 51.4239 43.9629H60.5109C61.5142 43.9629 62.3284 44.7771 62.3284 45.7803Z" fill="#0EB4DA"/>
<path d="M98.4633 38.0308C98.4633 38.118 98.4633 38.198 98.4561 38.2852V31.9897C98.4561 31.9388 98.4633 31.8952 98.4633 31.8516V38.0308Z" fill="#0EB4DA"/>
<path d="M57.1569 90.9831H7.83218C7.42507 90.9831 7.03251 90.9467 6.63995 90.8813C6.55998 90.8668 6.48002 90.8522 6.40732 90.8377C6.29101 90.8159 6.17469 90.7868 6.06565 90.7577C5.94933 90.7286 5.84029 90.6996 5.73124 90.6632C5.6222 90.6269 5.51315 90.5905 5.39684 90.5542C5.28779 90.5106 5.18602 90.4669 5.07697 90.4233C4.98974 90.3797 4.90977 90.3434 4.8298 90.307C4.80799 90.2925 4.78619 90.2852 4.76438 90.2779C4.68441 90.2343 4.60444 90.198 4.53175 90.1616C4.50994 90.1471 4.48086 90.1325 4.45905 90.1253C4.4227 90.1035 4.39362 90.0816 4.35727 90.0671C4.30639 90.038 4.24823 90.0017 4.19734 89.9726C4.19007 89.9653 4.1828 89.9653 4.16826 89.9581C4.07376 89.8999 3.97198 89.8418 3.87748 89.7763C3.68847 89.6527 3.50672 89.5146 3.33225 89.3692C3.15778 89.2311 2.99058 89.0784 2.83064 88.9112C2.77249 88.8531 2.7216 88.7949 2.66344 88.7368C2.53986 88.6132 2.43081 88.4896 2.33631 88.3587C2.21272 88.2133 2.10368 88.0679 2.0019 87.9153C1.97282 87.8789 1.94375 87.8353 1.92194 87.7917C1.80562 87.6318 1.70385 87.4573 1.60934 87.2828C1.5003 87.0793 1.39852 86.8757 1.31128 86.6649C1.26767 86.5559 1.22405 86.4541 1.1877 86.345C1.10773 86.1269 1.04231 85.9016 0.984149 85.6762C0.9478 85.5599 0.918722 85.4436 0.904182 85.3346C0.889643 85.2619 0.875104 85.1819 0.860564 85.1019C0.787868 84.7094 0.758789 84.3095 0.758789 83.9097V38.7796C0.758789 38.7142 0.758789 38.656 0.766059 38.5906C0.773328 38.7142 0.773328 38.8377 0.787868 38.9613C0.787868 39.1576 0.802407 39.3539 0.824216 39.5502C0.846025 39.8555 0.882373 40.1608 0.918722 40.4589C0.940531 40.6334 0.969609 40.8078 0.998688 40.975C1.0205 41.135 1.04958 41.2876 1.07865 41.4403C1.12227 41.6729 1.16589 41.9055 1.22405 42.1309C1.2604 42.3199 1.31128 42.5089 1.36217 42.6979C1.5948 43.5776 1.88559 44.4281 2.2418 45.2496C2.409 45.6422 2.59075 46.0202 2.78703 46.3982C2.83064 46.4927 2.87426 46.5799 2.92515 46.6672C3.0342 46.8707 3.14324 47.067 3.25956 47.2633C3.60123 47.8521 3.97925 48.4192 4.38635 48.9644L4.39362 48.9789V83.9097C4.39362 84.026 4.40089 84.1423 4.40816 84.2586C4.42997 84.4549 4.46632 84.6512 4.52448 84.8475C4.56083 84.9856 4.60444 85.1165 4.6626 85.2473C4.70622 85.3491 4.75711 85.4509 4.80799 85.5526C4.90977 85.7417 5.03335 85.9234 5.17148 86.0906C5.17148 86.0906 5.1739 86.093 5.17875 86.0979C5.24417 86.1851 5.31687 86.2651 5.39684 86.3378C5.4768 86.425 5.55677 86.4977 5.63674 86.5631C5.77486 86.6794 5.92752 86.7812 6.08019 86.8685C6.21104 86.9484 6.34916 87.0211 6.48729 87.0793C6.61814 87.1374 6.749 87.181 6.88712 87.2174C7.0834 87.2756 7.27968 87.3119 7.47596 87.3337C7.59228 87.341 7.70859 87.3483 7.82491 87.3483H57.1496C56.648 87.3483 56.19 87.5518 55.8629 87.8789C55.5357 88.2061 55.3322 88.6641 55.3322 89.1657C55.3322 90.1689 56.1464 90.9831 57.1496 90.9831H57.1569Z" fill="#0F3780"/>
<path d="M4.19824 89.9727C4.24913 90.0017 4.30729 90.0381 4.35818 90.0672C4.30729 90.0381 4.24913 90.009 4.19824 89.9799V89.9727Z" fill="#0A2555"/>
<path d="M102.098 38.031V83.9099C102.098 84.3897 102.047 84.8622 101.953 85.3129C101.909 85.5456 101.851 85.7709 101.778 85.9963C101.749 86.1126 101.706 86.2216 101.669 86.3307C101.626 86.447 101.582 86.5561 101.539 86.6651C101.502 86.7596 101.451 86.8468 101.408 86.9341C101.364 87.0286 101.321 87.1231 101.277 87.2103C101.161 87.4357 101.037 87.6538 100.892 87.8646C100.761 88.0463 100.63 88.2281 100.484 88.4025C100.332 88.5843 100.179 88.7515 100.019 88.9114C99.6994 89.2386 99.3504 89.5221 98.9797 89.7765H98.9724C98.7689 89.9146 98.558 90.0382 98.3399 90.1545C98.2309 90.2127 98.1146 90.2636 98.0055 90.3145C97.9256 90.3508 97.8529 90.3944 97.7729 90.4235C97.6639 90.4671 97.5548 90.5108 97.4458 90.5544C96.6679 90.8379 95.861 90.9833 95.0177 90.9833H57.1573C56.154 90.9833 55.3398 90.1691 55.3398 89.1659C55.3398 88.6643 55.5434 88.2063 55.8705 87.8791C56.1977 87.552 56.6557 87.3484 57.1573 87.3484H95.0177C95.1558 87.3484 95.294 87.3484 95.4321 87.3266C95.5266 87.3121 95.6284 87.2976 95.7156 87.2757C95.8246 87.2539 95.9264 87.2321 96.0355 87.1958C96.1445 87.1667 96.2535 87.1231 96.3553 87.0795H96.3626C96.5443 86.9995 96.7115 86.9123 96.8715 86.8032C97.0823 86.6724 97.2713 86.5197 97.453 86.338C97.6929 86.1053 97.8892 85.8364 98.0491 85.5456C98.2091 85.2548 98.3254 84.9349 98.3908 84.6005C98.4417 84.3751 98.4635 84.1425 98.4635 83.9099V48.9791C99.0015 48.2522 99.4958 47.4888 99.9247 46.6892C100.005 46.5365 100.085 46.3911 100.157 46.2312C100.23 46.1003 100.295 45.9622 100.354 45.8241C100.441 45.6642 100.514 45.497 100.579 45.3298C100.659 45.1625 100.732 44.9953 100.79 44.8281C100.877 44.6319 100.95 44.4283 101.022 44.2175C101.081 44.0721 101.131 43.9194 101.182 43.7668C101.248 43.5778 101.306 43.3888 101.357 43.1997C101.415 43.018 101.466 42.829 101.51 42.64C101.553 42.4873 101.589 42.3419 101.626 42.1893C101.677 41.9566 101.728 41.7313 101.771 41.5059C101.8 41.3532 101.822 41.1933 101.851 41.0406C101.88 40.8589 101.909 40.6699 101.931 40.4809C101.953 40.3718 101.968 40.2628 101.975 40.1537C102.011 39.8412 102.04 39.5286 102.055 39.2087C102.069 39.0269 102.084 38.8452 102.084 38.6562V38.6126C102.084 38.5253 102.084 38.4381 102.084 38.3436C102.091 38.2418 102.091 38.1328 102.091 38.031H102.098Z" fill="#0A2555"/>
<path d="M0.766059 38.5544V38.5908C0.758789 38.6562 0.758789 38.7144 0.758789 38.7798V38.031C0.758789 38.2055 0.758789 38.3799 0.766059 38.5544Z" fill="#0EB4DA"/>
<path d="M4.35745 90.0668C4.3067 90.0378 4.2487 90.0088 4.19795 89.9798C4.1907 89.9725 4.18345 89.9653 4.16895 89.958C4.18345 89.9653 4.1907 89.9653 4.19795 89.9725C4.2487 90.0015 4.3067 90.0378 4.35745 90.0668Z" fill="#0EB4DA"/>
<path d="M5.40403 86.3372C5.32428 86.2647 5.25178 86.1849 5.18652 86.0979C5.25903 86.1777 5.33153 86.2574 5.41128 86.3372H5.40403Z" fill="#0EB4DA"/>
<path d="M29.4448 16.6653L28.994 18.8462C28.8196 19.6967 28.0781 20.3001 27.213 20.3001H20.3868C19.3835 20.3001 18.5693 19.4859 18.5693 18.4827C18.5693 17.4795 19.3835 16.6653 20.3868 16.6653H29.4448Z" fill="#0A2555"/>
<path d="M18.5699 18.4827C18.5699 19.4859 19.3841 20.3001 20.3873 20.3001H7.82534C5.93523 20.3001 4.38679 21.8413 4.38679 23.7387V31.8516C4.38679 30.8411 3.57985 30.0342 2.56937 30.0342C1.55889 30.0342 0.751953 30.8411 0.751953 31.8516V22.2338C0.751953 19.166 3.25272 16.6653 6.32052 16.6653H20.3873C19.3841 16.6653 18.5699 17.4795 18.5699 18.4827Z" fill="#0F3780"/>
<path d="M75.6371 20.3001H27.2139C28.079 20.3001 28.8205 19.6967 28.9949 18.8462L29.4457 16.6653H73.4053L73.8561 18.8462C74.0305 19.6967 74.772 20.3001 75.6371 20.3001Z" fill="#0EB4DA"/>
<path d="M102.098 22.2339V31.8517C102.098 31.4737 101.982 31.1247 101.786 30.834C101.72 30.7322 101.64 30.6377 101.56 30.565C101.233 30.2306 100.783 30.0343 100.281 30.0343C99.2777 30.0343 98.4635 30.8412 98.4635 31.8517V23.7388C98.4635 21.8414 96.9151 20.3002 95.0177 20.3002H75.6367C74.7717 20.3002 74.0301 19.6968 73.8557 18.8463L73.405 16.6654L72.111 10.3916C71.4131 6.99671 68.3889 4.5323 64.9285 4.5323H37.9217C34.4613 4.5323 31.4372 6.99671 30.7393 10.3916L29.4453 16.6654H25.7305L27.1771 9.65741C28.2312 4.58318 32.7457 0.897461 37.9217 0.897461H64.9285C70.1045 0.897461 74.619 4.58318 75.6731 9.65014L77.1198 16.6654H96.5152C99.5976 16.6654 102.098 19.1661 102.098 22.2339Z" fill="#0EB4DA"/>
<path d="M102.092 38.7796V83.9097C102.092 84.862 101.911 85.7853 101.54 86.6649C101.184 87.5082 100.675 88.2642 100.021 88.9112C99.3736 89.5582 98.6176 90.0671 97.7743 90.4233C96.9019 90.7941 95.9787 90.9831 95.0191 90.9831H73.2246C74.2278 90.9831 75.042 90.1689 75.042 89.1657C75.042 88.1624 74.2278 87.3482 73.2246 87.3482H95.0191C95.4843 87.3482 95.9351 87.261 96.3567 87.0793C96.7711 86.9048 97.1346 86.6576 97.4544 86.3378C97.7743 86.0252 98.0214 85.6544 98.1887 85.2473C98.3704 84.8257 98.4576 84.3749 98.4576 83.9097V38.7796C98.4576 37.7764 99.2718 36.9622 100.275 36.9622C101.278 36.9622 102.092 37.7764 102.092 38.7796Z" fill="#0EB4DA"/>
<path d="M2.83322 88.9115H2.82595C2.76779 88.8534 2.70963 88.7952 2.66602 88.7371C2.72417 88.7952 2.77506 88.8534 2.83322 88.9115Z" fill="#0F3780"/>
<path d="M4.39514 38.7799V48.9719C4.39514 48.9719 4.39514 48.9719 4.38787 48.9719C3.98077 48.4267 3.60275 47.8597 3.26107 47.2708C3.14476 47.0746 3.03571 46.871 2.92667 46.6747C2.87578 46.5875 2.83216 46.5003 2.78855 46.4058C2.59227 46.035 2.41052 45.6497 2.24332 45.2572C1.88711 44.4357 1.59632 43.5851 1.36369 42.7055C1.3128 42.5165 1.26919 42.3275 1.22557 42.1385C1.16741 41.9131 1.12379 41.6805 1.08017 41.4478C1.0511 41.2952 1.02202 41.1425 1.00021 40.9826C0.971129 40.8154 0.94205 40.6409 0.920241 40.4664C0.883893 40.1684 0.847544 39.8631 0.825735 39.5577C0.803926 39.3614 0.796657 39.1652 0.789387 38.9689C0.774848 38.8453 0.774848 38.7217 0.767578 38.5981V38.5618C0.883893 37.6676 1.64721 36.9697 2.57773 36.9697C3.50824 36.9697 4.29337 37.6822 4.38787 38.5981C4.39514 38.6636 4.39514 38.7217 4.39514 38.7871V38.7799Z" fill="#0F3780"/>
<path d="M19.0942 52.7375C11.0758 52.7375 4.52582 46.2748 4.39497 38.2854C4.3877 38.1982 4.3877 38.1182 4.3877 38.031V48.9719H4.39497C7.74628 53.4645 13.0895 56.3724 19.0942 56.3724H42.5825V52.7375H19.0942Z" fill="#0F3780"/>
<path d="M98.4566 38.2854V48.9864C95.098 53.4717 89.7548 56.3723 83.7428 56.3723H60.2617V52.7375H83.7428C91.7757 52.7375 98.3257 46.2748 98.4566 38.2854Z" fill="#0EB4DA"/>
<path d="M102.1 31.8516V38.0308C102.1 38.2416 102.1 38.4525 102.086 38.656C101.962 42.5235 100.632 46.0856 98.4653 48.9789H98.458V38.2853C98.4653 38.198 98.4653 38.1181 98.4653 38.0308V31.8516C98.4653 30.8411 99.2795 30.0342 100.283 30.0342C100.784 30.0342 101.235 30.2305 101.562 30.5649C101.642 30.6376 101.722 30.7321 101.788 30.8338C101.984 31.1246 102.1 31.4736 102.1 31.8516Z" fill="#0EB4DA"/>
<path d="M4.39558 31.8514V48.9715C4.39558 48.9715 4.39558 48.9715 4.38831 48.9715C3.98121 48.4263 3.60318 47.8592 3.26151 47.2704C3.14519 47.0741 3.03615 46.8705 2.9271 46.6743C2.87622 46.587 2.8326 46.4998 2.78898 46.4053C2.5927 46.0345 2.41096 45.6492 2.24375 45.2567C1.88754 44.4352 1.59675 43.5847 1.36412 42.705C1.31324 42.516 1.26962 42.327 1.226 42.138C1.16784 41.9126 1.12423 41.68 1.08061 41.4474C1.05153 41.2947 1.02245 41.142 1.00064 40.9821C0.971563 40.8149 0.942484 40.6404 0.920675 40.466C0.884327 40.1679 0.847978 39.8626 0.826169 39.5573C0.80436 39.361 0.797091 39.1647 0.789821 38.9684C0.775282 38.8448 0.775282 38.7212 0.768012 38.5977V38.5613C0.760742 38.3868 0.760742 38.2124 0.760742 38.0379V31.8587C0.760742 31.4152 0.913405 31.0154 1.17511 30.7028C1.50952 30.2957 2.01113 30.0413 2.57816 30.0413C2.76717 30.0413 2.94891 30.0703 3.11612 30.1212C3.23243 30.1576 3.33421 30.2012 3.43598 30.2593C3.58864 30.3393 3.73404 30.4411 3.85762 30.5719C4.14841 30.8555 4.34469 31.2408 4.38831 31.6697C4.39558 31.7351 4.39558 31.7933 4.39558 31.8587V31.8514Z" fill="#0F3780"/>
<path d="M89.3566 89.1658C89.3566 89.6674 89.153 90.1254 88.8259 90.4525C88.4988 90.7797 88.0408 90.9832 87.5392 90.9832H57.1592C56.156 90.9832 55.3418 90.169 55.3418 89.1658C55.3418 88.6642 55.5454 88.2062 55.8725 87.8791C56.1996 87.5519 56.6576 87.3484 57.1592 87.3484H87.5392C88.5496 87.3484 89.3566 88.1626 89.3566 89.1658Z" fill="#0A2555"/>
<path d="M55.4586 43.9629H47.3965C46.3928 43.9629 45.5791 44.7766 45.5791 45.7803C45.5791 46.784 46.3928 47.5977 47.3965 47.5977H55.4586C56.4623 47.5977 57.276 46.784 57.276 45.7803C57.276 44.7766 56.4623 43.9629 55.4586 43.9629Z" fill="#0A2555"/>
<path d="M61.7692 16.6655H19.1035C18.0998 16.6655 17.2861 17.4792 17.2861 18.4829C17.2861 19.4867 18.0998 20.3004 19.1035 20.3004H61.7692C62.773 20.3004 63.5867 19.4867 63.5867 18.4829C63.5867 17.4792 62.773 16.6655 61.7692 16.6655Z" fill="#0A2555"/>
</g>
<defs>
<clipPath id="clip0_367_17861">
<rect width="101.346" height="90.0857" fill="white" transform="translate(0.754883 0.897705)"/>
</clipPath>
</defs>
</svg>
