<?xml version="1.0" encoding="utf-8"?>
<!-- Generator: Adobe Illustrator 27.7.0, SVG Export Plug-In . SVG Version: 6.00 Build 0)  -->
<svg version="1.1" id="Layer_1" xmlns="http://www.w3.org/2000/svg" xmlns:xlink="http://www.w3.org/1999/xlink" x="0px" y="0px"
	 viewBox="0 0 105 104" style="enable-background:new 0 0 105 104;" xml:space="preserve">
<style type="text/css">
	.st0{fill:#0F3780;}
	.st1{fill:#0EB4DA;}
	.st2{fill:#0A2555;}
</style>
<g id="Final">
	<g id="Medium">
		<circle class="st0" cx="73.6" cy="17.7" r="5.7"/>
		<circle class="st0" cx="94.5" cy="35.3" r="5.7"/>
		<circle class="st0" cx="99.3" cy="62.3" r="5.7"/>
		<circle class="st0" cx="85.6" cy="85.9" r="5.7"/>
		<path class="st0" d="M16.2,81.9c-0.1,0-0.2,0-0.3,0c-0.9-0.2-1.5-1-1.4-1.9l2.5-14.7c0-0.2,0-0.4-0.2-0.5L1.2,49.3
			c-1.1-1.1-1.5-2.6-1-4c0.5-1.4,1.7-2.5,3.2-2.7l21.7-3.2c0.2,0,0.4-0.2,0.5-0.3l6.3-12.8c0.4-0.8,1.4-1.2,2.2-0.8
			c0.8,0.4,1.2,1.4,0.8,2.2l-6.3,12.8c-0.6,1.2-1.7,2-3,2.2L3.9,45.9c-0.3,0-0.4,0.3-0.5,0.4c0,0.1-0.1,0.4,0.2,0.6l15.7,15.3
			c0.9,0.9,1.4,2.2,1.1,3.5l-2.5,14.7C17.7,81.3,17,81.9,16.2,81.9L16.2,81.9z"/>
	</g>
	<g id="Light">
		<path class="st1" d="M52.3,42.7c-0.1,0-0.2,0-0.2,0c-1.3-0.2-2.4-1-3-2.2l-6-12.2c-0.4-0.8-0.1-1.8,0.8-2.2
			c0.8-0.4,1.8-0.1,2.2,0.8l6,12.2c0.1,0.2,0.3,0.3,0.5,0.3c0.9,0.1,1.5,1,1.4,1.9C53.8,42.1,53.1,42.7,52.3,42.7L52.3,42.7z"/>
		<path class="st1" d="M60.4,91.4c-0.6,0-1.3-0.2-1.8-0.5L50,86.5c-0.8-0.4-1.1-1.4-0.7-2.3s1.4-1.1,2.3-0.7l8.5,4.5
			c0.3,0.2,0.5,0,0.6,0c0.1-0.1,0.3-0.3,0.2-0.6l-3.7-21.6c-0.2-1.3,0.2-2.6,1.1-3.5l15.7-15.3c0.2-0.2,0.2-0.5,0.2-0.6
			c0-0.1-0.2-0.4-0.5-0.4l-21.7-3.2c-0.9-0.1-1.5-1-1.4-1.9c0.1-0.9,1-1.5,1.9-1.4l21.7,3.2c1.5,0.2,2.7,1.2,3.2,2.7
			c0.5,1.4,0.1,3-1,4L60.7,64.6c-0.1,0.1-0.2,0.3-0.2,0.5l3.7,21.6c0.3,1.5-0.3,3-1.6,3.9C62,91.2,61.2,91.4,60.4,91.4L60.4,91.4z"
			/>
	</g>
	<g id="Dark">
		<path class="st2" d="M44.5,29.3c-0.6,0-1.2-0.3-1.5-0.9l-3.7-7.5c-0.1-0.3-0.4-0.3-0.5-0.3c-0.1,0-0.4,0-0.5,0.3l-3.4,6.8
			c-0.4,0.8-1.4,1.2-2.2,0.8c-0.8-0.4-1.2-1.4-0.8-2.2l3.4-6.8c0.7-1.4,2-2.2,3.5-2.2c1.5,0,2.9,0.8,3.5,2.2l3.7,7.5
			c0.4,0.8,0.1,1.8-0.8,2.2C45,29.2,44.8,29.3,44.5,29.3z"/>
		<path class="st2" d="M17.3,91.4c-0.8,0-1.6-0.3-2.3-0.8c-1.2-0.9-1.8-2.4-1.6-3.9l1.2-6.9c0.2-0.9,1-1.5,1.9-1.4
			c0.9,0.2,1.5,1,1.4,1.9l-1.2,6.9c-0.1,0.3,0.1,0.5,0.2,0.6c0.1,0.1,0.3,0.2,0.6,0L37,77.8c1.1-0.6,2.5-0.6,3.7,0l10.9,5.7
			c0.8,0.4,1.1,1.4,0.7,2.3c-0.4,0.8-1.4,1.1-2.3,0.7l-10.9-5.7c-0.2-0.1-0.4-0.1-0.6,0L19.1,91C18.5,91.3,17.9,91.4,17.3,91.4
			L17.3,91.4z"/>
	</g>
</g>
</svg>
