<svg width="105" height="104" viewBox="0 0 105 104" fill="none" xmlns="http://www.w3.org/2000/svg">
<path d="M100.979 100.385C96.4714 104.761 89.2385 104.71 84.7818 100.253L64.0985 79.5698C63.3825 78.8538 63.3825 77.6995 64.0985 76.9835L65.9177 75.1643L67.2109 76.4575C67.9269 77.1735 69.0812 77.1735 69.7972 76.4575L67.978 78.2767L87.3681 97.6668C90.4439 100.743 95.4559 100.743 98.539 97.6668C97.823 98.3828 97.823 99.5371 98.539 100.253C99.2038 100.918 100.263 100.969 100.979 100.385Z" fill="#0F3780"/>
<path d="M80.4358 63.2408L101.119 83.9241C105.576 88.3808 105.62 95.6137 101.251 100.122C101.835 99.4055 101.791 98.3462 101.119 97.6813C100.403 96.9653 99.2487 96.9653 98.5328 97.6813C101.609 94.6055 101.609 89.5936 98.5328 86.5105L79.1426 67.1203L77.3234 68.9395C78.0394 68.2235 78.0394 67.0692 77.3234 66.3532L76.0303 65.06L77.8495 63.2408C78.5655 62.5249 79.7198 62.5249 80.4358 63.2408Z" fill="#0EB4DA"/>
<path d="M60.8833 64.9724L68.4961 72.5853L65.9098 75.1716L57.9316 67.1934C58.9472 66.5067 59.9335 65.7761 60.8833 64.9797V64.9724Z" fill="#0F3780"/>
<path d="M68.0501 57.0747L76.0283 65.0529L73.442 67.6392L65.8291 60.0263C66.6181 59.0839 67.3561 58.0975 68.0428 57.0747H68.0501Z" fill="#0F3780"/>
<path d="M76.0358 65.0527L77.329 66.3459C78.045 67.0619 78.045 68.2162 77.329 68.9322L69.7965 76.4647C69.0805 77.1807 67.9261 77.1807 67.2102 76.4647L65.917 75.1715L76.0358 65.0527Z" fill="#0A2555"/>
<path d="M37.4391 69.8456C41.735 69.8237 45.9286 68.9908 49.9031 67.3616C48.9679 67.7415 48.515 68.8082 48.9095 69.7433C49.2894 70.6712 50.3634 71.1242 51.2912 70.737C46.8857 72.5415 42.2318 73.4767 37.4537 73.4986C32.6829 73.5279 28.0436 72.6438 23.6453 70.8758C19.0937 69.0493 15.0243 66.3534 11.532 62.8611C8.04703 59.3761 5.35112 55.3067 3.51731 50.7477C1.76387 46.3641 0.879847 41.7175 0.901765 36.9467C0.930989 32.1759 1.86616 27.522 3.66343 23.1165C3.28352 24.0443 3.72919 25.1183 4.65705 25.4982C5.59222 25.8854 6.65889 25.4398 7.0388 24.5046C5.40957 28.4791 4.57668 32.6727 4.55476 36.9686C4.52554 41.2646 5.32189 45.4436 6.9073 49.3961C8.55115 53.4875 10.9767 57.1478 14.111 60.2894C17.2526 63.431 20.9129 65.8565 25.0043 67.4931C28.9568 69.0785 33.1358 69.8675 37.4318 69.8456H37.4391Z" fill="#0F3780"/>
<path d="M26.3619 3.7994C26.7418 4.72726 26.3181 5.76471 25.4121 6.16654C25.3975 6.16654 25.3829 6.17385 25.3683 6.18115C21.2477 7.86884 17.5582 10.3383 14.3801 13.5091C11.202 16.6799 8.73252 20.384 7.05214 24.4973C6.67223 25.4325 5.60556 25.8781 4.67039 25.4909C3.74253 25.111 3.28955 24.037 3.67677 23.1092C5.54711 18.5429 8.27955 14.4442 11.801 10.9227C15.3225 7.40126 19.4212 4.66881 23.9875 2.79848C24.9226 2.41857 25.9893 2.86423 26.3692 3.79209L26.3619 3.7994Z" fill="#0A2555"/>
<path d="M71.608 50.4262C70.6436 52.7641 69.4527 54.9852 68.0573 57.0674C67.3705 58.0829 66.6326 59.0692 65.8436 60.019C65.113 60.9176 64.3166 61.7797 63.491 62.6126C62.6655 63.4455 61.796 64.2346 60.8974 64.9652C59.9476 65.7615 58.9686 66.4921 57.9458 67.1789C55.8563 68.5816 53.6425 69.7652 51.3046 70.7296C50.3768 71.1095 49.3028 70.6638 48.9229 69.736C48.5357 68.8008 48.9813 67.7341 49.9165 67.3542C51.8014 66.5725 53.606 65.6373 55.3083 64.5414C56.3385 63.8839 57.3467 63.1606 58.3038 62.3715C59.2097 61.6409 60.0791 60.8592 60.9047 60.0263C61.7303 59.1934 62.5193 58.324 63.2499 57.4254C64.0317 56.461 64.755 55.4601 65.4198 54.4299C66.523 52.7276 67.4582 50.9303 68.2326 49.0381C68.6125 48.1029 69.6719 47.6572 70.6144 48.0445C71.5422 48.4244 71.9952 49.4984 71.608 50.4262Z" fill="#0A2555"/>
<path d="M63.7319 10.6743C67.2242 14.1666 69.9128 18.2433 71.7466 22.7877C73.5074 27.1859 74.3841 31.8325 74.3622 36.6033C74.3403 41.3741 73.4124 46.0281 71.6078 50.4336C71.9877 49.5057 71.5421 48.4317 70.6142 48.0518C69.6717 47.6719 68.6124 48.1103 68.2324 49.0454C69.8617 45.071 70.6946 40.8846 70.7165 36.5814C70.7457 32.2855 69.9493 28.1064 68.3639 24.1539C66.7201 20.0625 64.3018 16.4022 61.1602 13.2607C58.0187 10.1191 54.3583 7.70079 50.267 6.05694C46.3144 4.47154 42.1281 3.67518 37.8395 3.70441C33.5655 3.72633 29.3791 4.5519 25.4193 6.17384C26.3252 5.77931 26.749 4.73455 26.3691 3.80669C25.9891 2.87883 24.9225 2.43316 23.9873 2.81308C28.3855 1.00119 33.0321 0.0733261 37.8029 0.0441021C42.5738 0.0221841 47.2204 0.898904 51.6186 2.65965C56.1702 4.49346 60.247 7.18206 63.7319 10.6743Z" fill="#0EB4DA"/>
<path d="M30.2943 47.5551C29.6002 48.2492 29.5783 49.3597 30.2285 50.0757L20.7088 40.5852C19.9928 39.8692 19.9928 38.7148 20.7015 37.9989C21.4175 37.2902 22.5718 37.2829 23.2878 37.9989L31.5801 46.2692L30.2943 47.5551Z" fill="#0EB4DA"/>
<path d="M32.8744 50.142C32.5164 50.4999 32.0488 50.6753 31.5812 50.6753C31.1136 50.6753 30.646 50.4999 30.288 50.142C30.2661 50.12 30.2442 50.0981 30.2296 50.0762C29.5794 49.3602 29.6013 48.2497 30.2953 47.5556L31.5812 46.2698L32.8744 47.5556C33.5903 48.2716 33.5903 49.426 32.8744 50.142Z" fill="#0A2555"/>
<path d="M54.8297 28.2163L32.8752 50.1416C33.5912 49.4256 33.5912 48.2713 32.8752 47.5553L31.582 46.2695L52.2434 25.63C52.9594 24.914 54.1137 24.914 54.8297 25.63C55.5384 26.346 55.5384 27.5003 54.8297 28.2163Z" fill="#0F3780"/>
<path d="M101.118 97.6742C101.783 98.339 101.834 99.3984 101.249 100.114C101.206 100.166 101.169 100.209 101.118 100.253C101.067 100.297 101.03 100.341 100.979 100.385C100.263 100.969 99.2038 100.925 98.5389 100.253C97.823 99.5372 97.823 98.3829 98.5389 97.6669C99.2549 96.9509 100.409 96.9509 101.125 97.6669L101.118 97.6742Z" fill="#0A2555"/>
</svg>
