<svg width="110" height="106" viewBox="0 0 110 106" fill="none" xmlns="http://www.w3.org/2000/svg">
<g clip-path="url(#clip0_367_17834)">
<path d="M49.1786 84.155H43.5913C42.7911 84.155 42.0126 84.0022 41.2778 83.6894C40.5721 83.3911 39.9392 82.9691 39.3935 82.4235C38.8552 81.8779 38.4259 81.2449 38.1277 80.5392C37.8148 79.8045 37.6621 79.026 37.6621 78.2257V74.108C37.6621 73.0531 37.5457 72.0055 37.3201 70.9869C37.0946 69.9757 36.7599 68.9863 36.3234 68.055C35.8869 67.1165 35.3485 66.229 34.7229 65.4214C34.0827 64.5993 33.3479 63.85 32.5476 63.2025C30.5688 61.5947 28.7572 59.7759 27.1713 57.7825C25.5707 55.7746 24.1957 53.5993 23.0753 51.3003C21.9331 48.9577 21.0528 46.4842 20.4635 43.9524C19.8524 41.3479 19.5469 38.6561 19.5469 35.957C19.5469 31.1117 20.5145 26.412 22.4351 22.0032C24.283 17.7472 26.9239 13.9423 30.2778 10.7121C33.6462 7.4674 37.5457 4.97202 41.8817 3.28418C40.9432 3.64794 40.4848 4.70284 40.8486 5.63406C41.2123 6.57256 42.2672 7.03817 43.1985 6.66714C39.3208 8.18037 35.8214 10.4211 32.8022 13.3312C29.7976 16.2267 27.4259 19.6388 25.7671 23.451C24.0575 27.4014 23.1845 31.6137 23.1845 35.957C23.1845 38.3796 23.4609 40.7877 24.0066 43.123C24.5376 45.3929 25.3234 47.6118 26.3419 49.7071C27.3459 51.7659 28.5826 53.7157 30.0158 55.5126C31.4418 57.3023 33.0641 58.9393 34.8393 60.3725C35.8578 61.2018 36.7818 62.1476 37.5966 63.188C38.3896 64.2138 39.0662 65.3341 39.6191 66.5127C40.172 67.6913 40.5867 68.9281 40.8704 70.2012C41.1541 71.4744 41.2996 72.7912 41.2996 74.108V78.2257C41.2996 78.5386 41.3578 78.8369 41.4742 79.1206C41.5906 79.3898 41.758 79.6371 41.969 79.8481C42.1799 80.0591 42.4273 80.2264 42.6965 80.3428C42.9802 80.4592 43.2785 80.5174 43.5913 80.5174H49.1786C48.1747 80.5174 47.3599 81.3322 47.3599 82.3362C47.3599 83.3402 48.1747 84.155 49.1786 84.155Z" fill="#0F3780"/>
<path d="M68.1818 83.7258V89.255C68.1818 91.6194 66.5231 93.6055 64.3041 94.093V92.3978C64.3041 91.3939 63.4893 90.579 62.4854 90.579H63.2274C63.9549 90.579 64.5442 89.9898 64.5442 89.255V84.1551H65.9629C66.7341 84.1551 67.4761 84.0168 68.1818 83.7258Z" fill="#0EB4DA"/>
<path d="M68.1817 82.3361V83.7257C67.476 84.0167 66.7339 84.1549 65.9627 84.1549H44.661V89.2548C44.661 89.9896 45.2503 90.5789 45.9778 90.5789H46.7272C45.7159 90.5789 44.9084 91.3937 44.9084 92.3977V94.0928C42.6895 93.6054 41.0234 91.6192 41.0234 89.2548V82.3361C41.0234 81.3322 41.8383 80.5173 42.8422 80.5173H66.3629C67.3741 80.5173 68.1817 81.3322 68.1817 82.3361Z" fill="#0F3780"/>
<path d="M64.3048 94.0928V95.8606C64.3048 101.208 59.9542 105.558 54.607 105.558C49.2597 105.558 44.9092 101.208 44.9092 95.8606V94.0928C45.2511 94.1728 45.6149 94.2165 45.9786 94.2165H48.5468V95.8606C48.5468 99.1999 51.2604 101.921 54.607 101.921C57.9536 101.921 60.6672 99.1999 60.6672 95.8606V94.2165H63.2281C63.5991 94.2165 63.9629 94.1728 64.3048 94.0928Z" fill="#0EB4DA"/>
<path d="M64.3048 92.3977V94.0928C63.9629 94.1728 63.5991 94.2164 63.2281 94.2164H45.9786C45.6149 94.2164 45.2511 94.1728 44.9092 94.0928V92.3977C44.9092 91.3937 45.7167 90.5789 46.728 90.5789H62.486C63.49 90.5789 64.3048 91.3937 64.3048 92.3977Z" fill="#0A2555"/>
<path d="M107.221 39.3544H100.011C99.0072 39.3544 98.1924 38.5396 98.1924 37.5356C98.1924 36.5316 99.0072 35.7168 100.011 35.7168H107.221C108.225 35.7168 109.04 36.5316 109.04 37.5356C109.04 38.5396 108.225 39.3544 107.221 39.3544Z" fill="#0F3780"/>
<path d="M98.8183 17.6161C98.1853 17.6161 97.5742 17.2888 97.2395 16.6995C96.7448 15.8264 97.0431 14.7133 97.9161 14.2186L104.689 10.3482C105.555 9.84625 106.668 10.1518 107.17 11.0248C107.665 11.8979 107.367 13.011 106.494 13.5057L99.7204 17.3761C99.4366 17.5361 99.1238 17.6161 98.8183 17.6161Z" fill="#0F3780"/>
<path d="M105.592 64.9631C105.286 64.9631 104.973 64.883 104.69 64.723L97.9164 60.8526C97.0434 60.3506 96.7379 59.2448 97.2398 58.3718C97.7418 57.4987 98.8477 57.1932 99.7207 57.6952L106.494 61.5656C107.367 62.0675 107.672 63.1734 107.17 64.0464C106.836 64.6357 106.217 64.9631 105.592 64.9631Z" fill="#0F3780"/>
<path d="M9.18767 39.3544H1.97797C0.973999 39.3544 0.15918 38.5396 0.15918 37.5356C0.15918 36.5316 0.973999 35.7168 1.97797 35.7168H9.18767C10.1916 35.7168 11.0065 36.5316 11.0065 37.5356C11.0065 38.5396 10.1916 39.3544 9.18767 39.3544Z" fill="#0F3780"/>
<path d="M3.61513 64.9631C2.98219 64.9631 2.37107 64.6357 2.03641 64.0464C1.5417 63.1734 1.83998 62.0603 2.713 61.5656L9.48619 57.6952C10.3592 57.1932 11.465 57.4987 11.967 58.3718C12.4617 59.2448 12.1635 60.3579 11.2904 60.8526L4.51725 64.723C4.23352 64.883 3.92068 64.9631 3.61513 64.9631Z" fill="#0F3780"/>
<path d="M10.3808 17.6161C10.0752 17.6161 9.76241 17.5361 9.47868 17.3761L2.70549 13.5057C1.83247 13.0037 1.52692 11.8979 2.0289 11.0248C2.53089 10.1518 3.63672 9.84625 4.50974 10.3482L11.2829 14.2186C12.1559 14.7206 12.4615 15.8264 11.9595 16.6995C11.6249 17.2888 11.0065 17.6161 10.3808 17.6161Z" fill="#0F3780"/>
<path d="M69.7545 6.33997C69.3471 7.25664 68.2631 7.66405 67.3537 7.25664H67.3465C63.7162 5.62701 59.853 4.72488 55.8808 4.56483C51.4939 4.39023 47.2233 5.10319 43.2002 6.66736C42.2689 7.03839 41.214 6.57278 40.8503 5.63428C40.4865 4.70306 40.9449 3.64816 41.8834 3.2844C46.3721 1.53108 51.1156 0.73809 56.019 0.927244C60.4642 1.10185 64.7783 2.1131 68.8379 3.93917C69.7545 4.34658 70.162 5.4233 69.7545 6.33997Z" fill="#0A2555"/>
<path d="M62.1881 82.3366C62.1881 83.3479 61.3733 84.1554 60.3693 84.1554H49.1801C48.1761 84.1554 47.3613 83.3479 47.3613 82.3366C47.3613 81.3254 48.1761 80.5178 49.1801 80.5178H60.3693C61.3733 80.5178 62.1881 81.3326 62.1881 82.3366Z" fill="#0A2555"/>
<path d="M88.9906 42.8032C88.4741 45.415 87.652 47.9758 86.5535 50.4057C85.4767 52.7847 84.1236 55.0473 82.5376 57.1353C80.9589 59.2087 79.1546 61.1075 77.1685 62.7808C76.3464 63.4719 75.5971 64.2431 74.9423 65.0798C74.2948 65.9164 73.7419 66.8112 73.2908 67.7497C72.8325 68.6955 72.4833 69.6849 72.2505 70.6962C72.0104 71.722 71.894 72.7769 71.894 73.8245V78.226C71.894 79.0263 71.7339 79.8047 71.4211 80.5395C71.1228 81.2452 70.6936 81.8781 70.1552 82.4238C69.6096 82.9694 68.9766 83.3914 68.271 83.6896C68.2419 83.7042 68.2128 83.7115 68.1837 83.726C67.478 84.017 66.7359 84.1553 65.9647 84.1553H60.3701C61.3741 84.1553 62.1889 83.3477 62.1889 82.3365C62.1889 81.3252 61.3741 80.5177 60.3701 80.5177H65.9647C66.2703 80.5177 66.5686 80.4595 66.8523 80.3431C67.1287 80.2267 67.3688 80.0593 67.5798 79.8484C67.7908 79.6374 67.9581 79.3973 68.0745 79.1208C68.1909 78.8371 68.2564 78.5388 68.2564 78.226V73.8245C68.2564 72.5004 68.4092 71.1691 68.7075 69.8741C69.0057 68.6009 69.4423 67.3569 70.0097 66.171C70.5699 64.9997 71.2683 63.8794 72.0759 62.8463C72.8907 61.8059 73.8146 60.8456 74.8259 59.9944C76.6083 58.4957 78.2307 56.7933 79.642 54.9382C81.0607 53.0612 82.2757 51.0314 83.236 48.8998C84.2254 46.7245 84.9602 44.4401 85.4258 42.0975C85.8987 39.6821 86.0951 37.194 86.0005 34.6986C85.8405 30.7191 84.9384 26.8633 83.316 23.2257C81.7373 19.7045 79.5475 16.5253 76.7975 13.7752C74.0474 11.0252 70.8755 8.8354 67.3543 7.25669C68.2637 7.6641 69.3477 7.25669 69.7551 6.34002C70.1625 5.42334 69.7551 4.34662 68.8384 3.93921C72.767 5.69253 76.31 8.14426 79.3729 11.2071C82.4357 14.27 84.8802 17.813 86.6335 21.7416C88.4523 25.8011 89.4563 30.1153 89.6309 34.5604C89.74 37.3322 89.529 40.1114 88.9906 42.8032Z" fill="#0EB4DA"/>
<path d="M67.6671 41.7408C72.3523 41.7408 76.1572 37.9286 76.1572 33.2506C76.1572 28.5727 72.345 24.7605 67.6671 24.7605C62.9892 24.7605 59.177 28.5727 59.177 33.2506C59.177 37.9286 62.9892 41.7408 67.6671 41.7408ZM67.6671 28.3908C70.3444 28.3908 72.5196 30.5661 72.5196 33.2434C72.5196 35.9206 70.3444 38.0959 67.6671 38.0959C64.9898 38.0959 62.8146 35.9206 62.8146 33.2434C62.8146 30.5661 64.9898 28.3908 67.6671 28.3908Z" fill="#0EB4DA"/>
<path d="M41.5343 41.7408C46.2195 41.7408 50.0244 37.9286 50.0244 33.2506C50.0244 28.5727 46.2122 24.7605 41.5343 24.7605C36.8564 24.7605 33.0442 28.5727 33.0442 33.2506C33.0442 37.9286 36.8564 41.7408 41.5343 41.7408ZM41.5343 28.3908C44.2116 28.3908 46.3868 30.5661 46.3868 33.2434C46.3868 35.9206 44.2116 38.0959 41.5343 38.0959C38.857 38.0959 36.6817 35.9206 36.6817 33.2434C36.6817 30.5661 38.857 28.3908 41.5343 28.3908Z" fill="#0F3780"/>
<path d="M60.1741 71.4962C61.1563 71.4962 61.9711 70.7105 61.9929 69.7211L62.815 33.287C62.8368 32.283 62.0438 31.4464 61.0398 31.4246C61.0253 31.4246 61.0107 31.4246 60.9962 31.4246C60.014 31.4246 59.1992 32.2103 59.1774 33.1997L58.3553 69.6338C58.3335 70.6377 59.1265 71.4744 60.1304 71.4962C60.145 71.4962 60.1596 71.4962 60.1741 71.4962Z" fill="#0EB4DA"/>
<path d="M48.9034 71.4962H48.9398C49.9438 71.4744 50.744 70.645 50.7222 69.641L50.0238 33.207C50.002 32.2176 49.1944 31.4246 48.205 31.4246H48.1686C47.1647 31.4464 46.3644 32.2758 46.3862 33.2797L47.0846 69.7138C47.1065 70.7032 47.914 71.4962 48.9034 71.4962Z" fill="#0F3780"/>
<path d="M41.5341 41.7409H67.6666C68.6705 41.7409 69.4854 40.926 69.4854 39.9221C69.4854 38.9181 68.6705 38.1033 67.6666 38.1033H41.5341C40.5302 38.1033 39.7153 38.9181 39.7153 39.9221C39.7153 40.926 40.5302 41.7409 41.5341 41.7409Z" fill="#0A2555"/>
</g>
<defs>
<clipPath id="clip0_367_17834">
<rect width="108.88" height="104.661" fill="white" transform="translate(0.15918 0.897705)"/>
</clipPath>
</defs>
</svg>
