<svg width="124" height="113" viewBox="0 0 124 113" fill="none" xmlns="http://www.w3.org/2000/svg">
<g clip-path="url(#clip0_367_17776)">
<path d="M64.1177 25.4856V89.6572H60.4844V25.4856C61.073 25.5801 61.6834 25.6237 62.301 25.6237C62.9187 25.6237 63.5291 25.5801 64.1177 25.4856Z" fill="#0EB4DA"/>
<path d="M37.8565 69.2963H33.9253L19.5301 34.1476L5.13492 69.2963H1.21094L17.837 28.6831C17.7571 28.8938 17.7135 29.1191 17.7135 29.3516C17.7135 30.3544 18.5273 31.1683 19.5301 31.1683H22.2333L37.8565 69.2963Z" fill="#0F3780"/>
<path d="M34.7094 72.9292C33.8084 80.5083 27.3411 86.4015 19.5294 86.4015C11.7178 86.4015 5.25051 80.5083 4.34945 72.9292H0.694336C1.60993 82.5139 9.70496 90.0348 19.5294 90.0348C29.3539 90.0348 37.4417 82.5139 38.3573 72.9292H34.7094Z" fill="#0EB4DA"/>
<path d="M123.399 69.2092H119.475L105.08 34.0532L90.6847 69.2092H86.7607L102.369 31.0812H105.08C106.083 31.0812 106.897 30.2673 106.897 29.2645C106.897 29.0756 106.868 28.8939 106.817 28.7268L123.399 69.2092Z" fill="#0F3780"/>
<path d="M120.259 72.8425C119.358 80.4144 112.891 86.3076 105.079 86.3076C97.2676 86.3076 90.8003 80.4144 89.8993 72.8425H86.2441C87.1597 82.4199 95.2548 89.9409 105.079 89.9409C114.904 89.9409 122.991 82.4199 123.907 72.8425H120.259Z" fill="#0EB4DA"/>
<path d="M22.2327 31.1685H19.5295C18.5268 31.1685 17.7129 30.3546 17.7129 29.3518C17.7129 29.0393 17.7928 28.7414 17.9309 28.4871C17.96 28.4362 17.989 28.3854 18.0254 28.3345C18.0544 28.2909 18.0908 28.24 18.1271 28.1964C18.1416 28.1746 18.1634 28.1528 18.1852 28.131C18.2216 28.0874 18.2652 28.0438 18.3088 28.0075C18.3451 27.9712 18.3814 27.9421 18.425 27.913C18.4904 27.8549 18.5631 27.8113 18.643 27.7677C18.6576 27.7604 18.6648 27.7532 18.6794 27.7459C18.7157 27.7241 18.7593 27.7023 18.8029 27.6878C18.8683 27.6587 18.9264 27.6369 18.9918 27.6151C19.079 27.586 19.1662 27.5715 19.2534 27.557C19.3479 27.5424 19.4351 27.5352 19.5295 27.5352C20.2635 27.5352 20.932 27.9784 21.2081 28.6615L22.2327 31.1685Z" fill="#0A2555"/>
<path d="M39.4607 29.3518C39.4607 30.3546 38.6468 31.1685 37.644 31.1685H22.2315L21.2069 28.6615C20.9308 27.9784 20.2622 27.5352 19.5283 27.5352H37.644C38.6468 27.5352 39.4607 28.349 39.4607 29.3518Z" fill="#0F3780"/>
<path d="M106.895 29.2642C106.895 30.267 106.081 31.0808 105.079 31.0808H102.368L103.393 28.5738C103.676 27.8908 104.337 27.4475 105.079 27.4475C105.173 27.4475 105.26 27.4548 105.347 27.4693C105.442 27.4838 105.529 27.4984 105.609 27.5274C105.871 27.6074 106.103 27.7454 106.299 27.9198C106.365 27.978 106.423 28.0434 106.481 28.1088C106.539 28.1814 106.597 28.2614 106.641 28.3413C106.685 28.414 106.721 28.4866 106.75 28.5593C106.779 28.6102 106.794 28.6683 106.815 28.7264C106.866 28.8936 106.895 29.0752 106.895 29.2642Z" fill="#0A2555"/>
<path d="M86.9641 27.4475H105.08C104.339 27.4475 103.677 27.8908 103.394 28.5738L102.369 31.0808H86.9641C85.9613 31.0808 85.1475 30.267 85.1475 29.2642C85.1475 28.2614 85.9613 27.4475 86.9641 27.4475Z" fill="#0F3780"/>
<path d="M49.8741 14.2444C49.9831 15.5233 50.2883 16.7441 50.7606 17.8777C46.0082 20.4283 42.0043 24.5485 39.3956 29.824C39.352 29.8967 39.3156 29.9766 39.2793 30.0566C38.8433 30.9576 37.7533 31.3355 36.8523 30.8995C35.9512 30.4562 35.5733 29.3735 36.0093 28.4724C36.1619 28.16 36.3218 27.8475 36.4817 27.535C39.599 21.5909 44.3078 16.9984 49.8741 14.2444Z" fill="#0F3780"/>
<path d="M87.755 30.8995C87.5007 31.023 87.2245 31.0812 86.9629 31.0812C86.9121 31.0812 86.8612 31.0812 86.8103 31.0739C86.7595 31.0739 86.7086 31.0594 86.6577 31.0521C86.5923 31.0448 86.5269 31.0303 86.4688 31.0085C86.3962 30.994 86.3235 30.9649 86.2508 30.9358C86.1563 30.8995 86.0691 30.8486 85.9819 30.7905C85.9674 30.7905 85.9602 30.776 85.9456 30.7687C85.8802 30.7251 85.8148 30.6742 85.7494 30.6161C85.6404 30.5216 85.5387 30.4126 85.4588 30.2818C85.4152 30.2164 85.3716 30.151 85.3425 30.0784C85.3352 30.0784 85.3352 30.0638 85.328 30.0566C82.7192 24.672 78.6717 20.4646 73.8467 17.8777C74.319 16.7441 74.6242 15.5233 74.7332 14.2444C80.2704 16.9839 84.9646 21.5473 88.082 27.4478C88.2564 27.7821 88.4308 28.1236 88.5979 28.4724C89.0339 29.3735 88.6561 30.4562 87.755 30.8995Z" fill="#0F3780"/>
<path d="M70.5259 16.4026C69.4431 19.1276 67.0452 21.1913 64.1167 21.8017V25.4859C68.5275 24.8464 72.1972 21.8816 73.8467 17.8777C72.7785 17.3037 71.6667 16.8095 70.5259 16.4026ZM62.3 0.663086C55.4185 0.663086 49.8232 6.25839 49.8232 13.1399C49.8232 13.5105 49.8378 13.8811 49.8741 14.2444C51.0368 13.6631 52.2358 13.169 53.4711 12.762C53.66 8.06051 57.5477 4.2964 62.3 4.2964C67.0524 4.2964 70.9473 8.06051 71.1363 12.762C72.3716 13.169 73.5706 13.6631 74.7332 14.2444C74.7696 13.8811 74.7841 13.5105 74.7841 13.1399C74.7841 6.25839 69.1815 0.663086 62.3 0.663086ZM54.0815 16.4026C52.9406 16.8095 51.8288 17.3037 50.7606 17.8777C52.4029 21.8816 56.0725 24.8464 60.4834 25.4859V21.8017C57.5622 21.1913 55.1642 19.1276 54.0815 16.4026Z" fill="#0F3780"/>
<path d="M74.7328 14.2441C74.6238 15.523 74.3186 16.7438 73.8462 17.8774C72.778 17.3034 71.6663 16.8092 70.5254 16.4023C70.9323 15.3922 71.1503 14.295 71.1503 13.1396C71.1503 13.0161 71.1503 12.8853 71.1358 12.7617C72.3711 13.1686 73.5701 13.6628 74.7328 14.2441Z" fill="#0A2555"/>
<path d="M64.1177 21.8018V25.4859C63.5291 25.5804 62.9187 25.624 62.301 25.624C61.6834 25.624 61.073 25.5804 60.4844 25.4859V21.8018C61.073 21.9253 61.6761 21.9907 62.301 21.9907C62.926 21.9907 63.5291 21.9253 64.1177 21.8018Z" fill="#0A2555"/>
<path d="M54.0814 16.4023C52.9405 16.8092 51.8287 17.3034 50.7605 17.8774C50.2882 16.7438 49.983 15.523 49.874 14.2441C51.0367 13.6628 52.2357 13.1686 53.471 12.7617C53.4565 12.8853 53.4565 13.0161 53.4565 13.1396C53.4565 14.295 53.6817 15.3922 54.0814 16.4023Z" fill="#0A2555"/>
<path d="M38.4448 71.113V71.2511C38.4448 71.8179 38.4084 72.3774 38.3576 72.9297H0.694621C0.636488 72.3338 0.607422 71.7234 0.607422 71.113C0.607422 71.0258 0.607422 70.9314 0.629222 70.8442C0.651022 70.757 0.665555 70.6771 0.687355 70.5899C0.701888 70.539 0.723688 70.4808 0.745488 70.4227C0.767288 70.3646 0.796354 70.3065 0.825421 70.2483L1.21055 69.2964H37.8562L38.314 70.4227C38.3358 70.4736 38.3576 70.5244 38.3648 70.5753C38.4157 70.7424 38.4448 70.9241 38.4448 71.113Z" fill="#0A2555"/>
<path d="M123.994 71.0256V71.1637C123.986 71.7305 123.957 72.29 123.906 72.8423H86.2434C86.1853 72.2464 86.1562 71.636 86.1562 71.0256C86.1562 70.9384 86.1635 70.844 86.178 70.7568C86.1926 70.6696 86.2071 70.5896 86.2362 70.5024C86.2507 70.4516 86.2725 70.3934 86.2943 70.3353C86.3161 70.2772 86.3452 70.219 86.3742 70.1609L86.7594 69.209H123.398L123.863 70.3353C123.885 70.3862 123.906 70.437 123.914 70.4879C123.965 70.655 123.994 70.8367 123.994 71.0256Z" fill="#0A2555"/>
<path d="M40.9302 100.455V108.449H50.7111C49.7083 108.449 48.8944 109.263 48.8944 110.265C48.8944 111.268 49.7083 112.082 50.7111 112.082H39.1135C38.1107 112.082 37.2969 111.268 37.2969 110.265V100.455C37.2969 98.7188 37.6384 97.0329 38.3142 95.4488C38.9609 93.9228 39.8838 92.5494 41.0683 91.3649C42.2454 90.1805 43.6188 89.2576 45.1521 88.6109C46.7362 87.9351 48.4221 87.6008 50.1588 87.6008H56.2337C55.2236 87.6008 54.4171 88.4074 54.4171 89.4175C54.4171 90.4275 55.2236 91.2341 56.2337 91.2341H50.1588C48.9162 91.2341 47.7027 91.4739 46.5691 91.9535C45.4718 92.4186 44.4836 93.0871 43.6334 93.9301C42.7904 94.7803 42.1219 95.7685 41.6569 96.8658C41.1773 97.9994 40.9302 99.2129 40.9302 100.455Z" fill="#0F3780"/>
<path d="M70.1856 89.4172C70.1856 90.42 69.379 91.2339 68.3689 91.2339H56.2336C55.2236 91.2339 54.417 90.42 54.417 89.4172C54.417 88.4144 55.2236 87.6006 56.2336 87.6006H68.3689C69.379 87.6006 70.1856 88.4072 70.1856 89.4172Z" fill="#0A2555"/>
<path d="M75.7084 110.265C75.7084 111.268 74.8945 112.082 73.8917 112.082H50.7112C49.7084 112.082 48.8945 111.268 48.8945 110.265C48.8945 109.262 49.7084 108.448 50.7112 108.448H73.8917C74.8945 108.448 75.7084 109.262 75.7084 110.265Z" fill="#0A2555"/>
<path d="M87.306 100.455V110.265C87.306 111.268 86.4921 112.082 85.4893 112.082H73.8918C74.8946 112.082 75.7084 111.268 75.7084 110.265C75.7084 109.262 74.8946 108.449 73.8918 108.449H83.6727V100.455C83.6727 99.2127 83.4256 98.0064 82.946 96.8655C82.4809 95.7683 81.8124 94.78 80.9695 93.9298C80.1193 93.0869 79.131 92.4184 78.0338 91.9533C76.9002 91.4737 75.6866 91.2339 74.444 91.2339H68.3691C69.3792 91.2339 70.1858 90.42 70.1858 89.4172C70.1858 88.4144 69.3792 87.6006 68.3691 87.6006H74.444C76.1808 87.6006 77.8666 87.9349 79.4508 88.6106C80.984 89.2574 82.3574 90.1875 83.5346 91.3647C84.7191 92.5419 85.6419 93.9153 86.2887 95.4485C86.9644 97.0399 87.306 98.7258 87.306 100.455Z" fill="#0EB4DA"/>
</g>
<defs>
<clipPath id="clip0_367_17776">
<rect width="123.387" height="111.419" fill="white" transform="translate(0.607422 0.662842)"/>
</clipPath>
</defs>
</svg>
