<svg width="83" height="99" viewBox="0 0 83 99" fill="none" xmlns="http://www.w3.org/2000/svg">
<g clip-path="url(#clip0_367_17894)">
<path d="M5.41262 87.3341V93.1469C5.41262 94.0272 6.13337 94.7475 7.01429 94.7475H12.6711C12.1688 94.7475 11.7101 94.9512 11.3825 95.2786C11.0549 95.606 10.851 96.0643 10.851 96.5663C10.851 97.5702 11.6664 98.3851 12.6711 98.3851H7.01429C4.124 98.3851 1.77246 96.0352 1.77246 93.1469V87.3341C1.77246 84.4458 4.124 82.0959 7.01429 82.0959H21.3274C20.8251 82.0959 20.3737 82.2996 20.0388 82.627C19.7112 82.9617 19.5073 83.4128 19.5073 83.9147C19.5073 84.9187 20.3227 85.7335 21.3274 85.7335H7.01429C6.13337 85.7335 5.41262 86.4465 5.41262 87.3341Z" fill="#0F3780"/>
<path d="M19.5078 83.9147C19.5078 83.4128 19.7117 82.9617 20.0393 82.627C20.3742 82.2996 20.8255 82.0959 21.3279 82.0959H23.6867V83.9147C23.6867 84.9187 24.5021 85.7335 25.5068 85.7335H21.3279C20.3232 85.7335 19.5078 84.9187 19.5078 83.9147Z" fill="#0EB4DA"/>
<path d="M81.6226 87.3341V93.1469C81.6226 96.0352 79.271 98.3851 76.3807 98.3851H12.6707C11.666 98.3851 10.8506 97.5702 10.8506 96.5663C10.8506 96.0643 11.0544 95.606 11.382 95.2786C11.7097 94.9512 12.1683 94.7475 12.6707 94.7475H76.3807C77.2616 94.7475 77.9824 94.0272 77.9824 93.1469V87.3341C77.9824 86.4465 77.2616 85.7335 76.3807 85.7335H57.8814C58.8934 85.7335 59.7015 84.9187 59.7015 83.9147V82.0959H76.3807C79.271 82.0959 81.6226 84.4458 81.6226 87.3341Z" fill="#0EB4DA"/>
<path d="M59.7023 82.0959V83.9147C59.7023 84.9187 58.8941 85.7335 57.8822 85.7335H25.5066C24.5019 85.7335 23.6865 84.9187 23.6865 83.9147V82.0959H59.7023Z" fill="#0A2555"/>
<path d="M27.3267 71.0232H23.6865V74.6608H27.3267V71.0232Z" fill="#0A2555"/>
<path d="M59.7027 71.0232H56.0625V74.6608H59.7027V71.0232Z" fill="#0A2555"/>
<path d="M59.7027 74.6606H56.0625V82.0959H59.7027V74.6606Z" fill="#0A2555"/>
<path d="M27.3267 74.6606H23.6865V82.0959H27.3267V74.6606Z" fill="#0A2555"/>
<path d="M43.5181 30.1585V33.5852C43.5181 33.6579 43.5181 33.7307 43.5108 33.7961C42.9211 33.7816 42.3168 33.7743 41.698 33.7743C41.0792 33.7743 40.4749 33.7816 39.8852 33.7961C39.8779 33.7307 39.8779 33.6579 39.8779 33.5852V30.1585C40.4749 30.144 41.0792 30.1367 41.698 30.1367C42.3168 30.1367 42.9211 30.144 43.5181 30.1585Z" fill="#0A2555"/>
<path d="M43.5181 21.5083V30.1585C42.9211 30.1439 42.3168 30.1367 41.698 30.1367C41.0792 30.1367 40.4749 30.1439 39.8779 30.1585V21.5083H43.5181Z" fill="#0A2555"/>
<path d="M43.5181 18.0598V21.5082H39.8779V18.0598C39.8779 17.9943 39.8779 17.9288 39.8852 17.8706H43.5108C43.5181 17.9288 43.5181 17.9943 43.5181 18.0598Z" fill="#0F3780"/>
<path d="M32.6121 17.8706H39.8851C39.8778 17.9288 39.8778 17.9943 39.8778 18.0598V21.5082H32.6121C31.6074 21.5082 30.792 20.6934 30.792 19.6894C30.792 18.6854 31.6074 17.8706 32.6121 17.8706Z" fill="#0EB4DA"/>
<path d="M52.6039 19.6894C52.6039 20.6934 51.7885 21.5082 50.7838 21.5082H43.518V18.0598C43.518 17.9943 43.518 17.9288 43.5107 17.8706H50.7838C51.7885 17.8706 52.6039 18.6854 52.6039 19.6894Z" fill="#0EB4DA"/>
<path d="M41.698 9.48973C40.6933 9.48973 39.8779 8.67491 39.8779 7.67094V2.50556C39.8779 1.50159 40.6933 0.686768 41.698 0.686768C42.7027 0.686768 43.5181 1.50159 43.5181 2.50556V7.67094C43.5181 8.67491 42.7027 9.48973 41.698 9.48973Z" fill="#0F3780"/>
<path d="M19.2079 15.7611C18.742 15.7611 18.2761 15.5865 17.9193 15.2301L14.2646 11.5779C13.5511 10.8649 13.5511 9.71547 14.2646 9.0025C14.9781 8.28953 16.1284 8.28953 16.8418 9.0025L20.4965 12.6546C21.21 13.3676 21.21 14.5171 20.4965 15.2301C20.1398 15.5865 19.6739 15.7611 19.2079 15.7611Z" fill="#0F3780"/>
<path d="M64.186 15.7611C63.7201 15.7611 63.2541 15.5865 62.8974 15.2301C62.1839 14.5171 62.1839 13.3676 62.8974 12.6546L66.5521 9.0025C67.2656 8.28953 68.4159 8.28953 69.1294 9.0025C69.8428 9.71547 69.8428 10.8649 69.1294 11.5779L65.4746 15.2301C65.1179 15.5865 64.652 15.7611 64.186 15.7611Z" fill="#0F3780"/>
<path d="M31.3162 34.5383C28.3749 35.0112 25.6667 35.7169 23.286 36.6408C21.0437 37.5065 19.0125 38.5978 17.2433 39.871C15.5907 41.0641 14.091 42.4682 12.8023 44.0542C11.5792 45.5529 10.5309 47.1971 9.58444 49.0959C8.72536 50.8347 7.97549 52.7262 7.31298 54.8942C6.72328 56.793 6.19909 58.8883 5.71859 61.2891C5.32546 63.2097 4.96144 65.305 4.5319 68.1059C4.50278 68.3024 4.48822 68.4988 4.50278 68.6952C4.51006 68.8771 4.54646 69.0663 4.59014 69.2481C4.64111 69.4227 4.70663 69.5901 4.78671 69.7501C4.8668 69.9102 4.96144 70.0557 5.07065 70.1939C5.17257 70.3249 5.29634 70.4413 5.42738 70.5504C5.55115 70.6522 5.68219 70.7396 5.8278 70.8123C5.96612 70.8851 6.11901 70.9433 6.26462 70.9796C6.42478 71.016 6.58495 71.0306 6.7524 71.0306H15.4888C14.4841 71.0306 13.6687 71.8454 13.6687 72.8494C13.6687 73.8533 14.4841 74.6681 15.4888 74.6681H6.7524C6.29374 74.6681 5.84236 74.6172 5.40554 74.5081C4.99056 74.4135 4.57558 74.2607 4.18245 74.0643C3.80387 73.8679 3.43985 73.6351 3.11224 73.3586C2.78463 73.0967 2.48613 72.7912 2.22404 72.4638C1.96195 72.1291 1.72898 71.7726 1.53969 71.3943C1.34312 71.016 1.19024 70.6086 1.08103 70.1939C0.964547 69.7792 0.891743 69.3427 0.869902 68.9062C0.840781 68.4551 0.862622 67.9968 0.935425 67.5457C1.37224 64.6939 1.75082 62.5404 2.14396 60.5689C2.66086 58.0444 3.20688 55.84 3.83299 53.8175C4.56102 51.4676 5.37642 49.3942 6.33014 47.4735C7.37123 45.371 8.6016 43.4431 9.98486 41.7552C11.4773 39.9219 13.2028 38.2995 15.1175 36.9173C17.1341 35.4622 19.442 34.2327 21.9683 33.2506C24.5892 32.232 27.545 31.4609 30.741 30.9443C29.7509 31.1044 29.0739 32.0356 29.234 33.0323C29.3942 34.0217 30.3261 34.6983 31.3162 34.5383Z" fill="#0F3780"/>
<path d="M54.1675 33.0323C54.0074 34.0218 53.0755 34.6984 52.0781 34.5383C48.9621 34.0363 45.4676 33.789 41.6963 33.789C37.9251 33.789 34.4379 34.0363 31.3146 34.5383C30.3245 34.6984 29.3926 34.0218 29.2324 33.0323C29.0723 32.0356 29.7493 31.1044 30.7395 30.9444C34.052 30.4133 37.7359 30.1514 41.6963 30.1514C45.6568 30.1514 49.348 30.4133 52.6532 30.9444C53.6506 31.1044 54.3277 32.0356 54.1675 33.0323Z" fill="#0A2555"/>
<path d="M69.7337 72.8496C69.7337 73.8608 68.9183 74.6684 67.9136 74.6684H15.488C14.4834 74.6684 13.668 73.8608 13.668 72.8496C13.668 71.8383 14.4834 71.0308 15.488 71.0308H67.9136C68.9183 71.0308 69.7337 71.8456 69.7337 72.8496Z" fill="#0A2555"/>
<path d="M82.5327 68.9062C82.5108 69.3427 82.438 69.772 82.3215 70.1939C82.2123 70.6159 82.0522 71.016 81.8629 71.3943C81.6736 71.7726 81.4406 72.1291 81.1785 72.4638C80.9164 72.7912 80.6107 73.0967 80.2903 73.3586C79.9554 73.6351 79.5914 73.8679 79.2201 74.0643C78.827 74.2607 78.412 74.4135 77.9898 74.5154C77.5602 74.6172 77.1088 74.6681 76.6502 74.6681H67.9138C68.9185 74.6681 69.7339 73.8606 69.7339 72.8494C69.7339 71.8381 68.9185 71.0306 67.9138 71.0306H76.6502C76.8176 71.0306 76.9778 71.016 77.1307 70.9796C77.2836 70.9433 77.4364 70.8851 77.5748 70.8123C77.7131 70.7396 77.8514 70.6522 77.9825 70.5504C78.1062 70.4485 78.2227 70.3249 78.3319 70.1939C78.4411 70.0557 78.5358 69.9102 78.6159 69.7501C78.6959 69.5901 78.7615 69.4227 78.8124 69.2409C78.8561 69.0663 78.8852 68.8771 78.8998 68.6952C78.9144 68.4988 78.8998 68.3024 78.8707 68.1059C78.5795 66.2144 78.179 63.7408 77.684 61.2891C77.1962 58.8883 76.6793 56.793 76.0896 54.8942C75.4198 52.7335 74.6772 50.8347 73.8109 49.0959C72.8717 47.1971 71.816 45.5529 70.593 44.0542C69.3043 42.4682 67.8119 41.0641 66.152 39.871C64.3828 38.5978 62.3516 37.5065 60.1166 36.6408C57.7286 35.7169 55.0276 35.0112 52.0791 34.5383C53.0765 34.6983 54.0084 34.0217 54.1686 33.0323C54.3287 32.0356 53.6517 31.1044 52.6542 30.9443C55.8576 31.4609 58.8061 32.232 61.4343 33.2506C63.9533 34.2327 66.2612 35.4622 68.2851 36.9173C70.1998 38.2995 71.9252 39.9292 73.4177 41.7552C74.7937 43.4358 76.0241 45.3637 77.0724 47.4735C78.0262 49.3942 78.8416 51.4676 79.5696 53.8175C80.1884 55.84 80.7417 58.0444 81.2513 60.5689C81.761 63.0933 82.1687 65.6251 82.4671 67.5457C82.54 67.9968 82.5618 68.4551 82.5327 68.9062Z" fill="#0EB4DA"/>
<path d="M72.5513 96.5664C72.5513 97.0683 72.3474 97.5267 72.0198 97.8541C71.6849 98.1814 71.2335 98.3851 70.7312 98.3851H12.6707C11.666 98.3851 10.8506 97.5703 10.8506 96.5664C10.8506 96.0644 11.0544 95.606 11.382 95.2787C11.7097 94.9513 12.1683 94.7476 12.6707 94.7476H70.7312C71.7359 94.7476 72.5513 95.5624 72.5513 96.5664Z" fill="#0A2555"/>
<path d="M63.8959 83.9147C63.8959 84.4167 63.6921 84.8678 63.3644 85.2024C63.0368 85.5298 62.5782 85.7335 62.0758 85.7335H21.3279C20.3232 85.7335 19.5078 84.9187 19.5078 83.9147C19.5078 83.4128 19.7117 82.9617 20.0393 82.627C20.3742 82.2996 20.8255 82.0959 21.3279 82.0959H62.0758C63.0805 82.0959 63.8959 82.9108 63.8959 83.9147Z" fill="#0A2555"/>
</g>
<defs>
<clipPath id="clip0_367_17894">
<rect width="81.6852" height="97.6983" fill="white" transform="translate(0.854492 0.687012)"/>
</clipPath>
</defs>
</svg>
