<?xml version="1.0" encoding="utf-8"?>
<!-- Generator: Adobe Illustrator 28.2.0, SVG Export Plug-In . SVG Version: 6.00 Build 0)  -->
<svg version="1.1" id="Layer_2_00000029038676197166220560000017047950640193693118_"
	 xmlns="http://www.w3.org/2000/svg" xmlns:xlink="http://www.w3.org/1999/xlink" x="0px" y="0px" viewBox="0 0 1641.4 937"
	 style="enable-background:new 0 0 1641.4 937;" xml:space="preserve">
<style type="text/css">
	.st0{fill:#0A2555;}
</style>
<path class="st0" d="M1575.6,642.9c-12.9-21.9-19.7-46.8-20.2-71.6l-477.9,12.4c-2.5-106,21.9-212.8,73.9-309.3l-81.3-43.4
	C950.9,453.4,959.2,723,1088.4,937L1575.6,642.9C1575.6,643,1575.6,642.9,1575.6,642.9L1575.6,642.9z"/>
<path class="st0" d="M1232.2,158.1c-31.9,36.3-58.8,75.4-80.8,116.2l421.4,224.9c5.2-9.6,11.4-18.7,18.9-27.2
	c14.2-16.2,31.3-28.5,49.7-36.8L1446.6,0C1367,35.5,1293.5,88.3,1232.2,158.1z"/>
<path class="st0" d="M0.1,424.1c12.7,1.4,24.8,6.2,35,13.5L174.3,241c43.5,31,79.2,73.1,102.6,123.2l42.1-19.7
	C265.1,229.2,153.8,151.2,28.4,138.7L0.1,424.1C0,424.1,0,424.1,0.1,424.1L0.1,424.1z"/>
<path class="st0" d="M299.4,431.9c-5-23.9-12.7-46.5-22.5-67.7l-218,102.2c2.3,5,4.1,10.3,5.3,15.9c2.2,10.6,2.1,21.2-0.2,31.2
	l234.5,52.8C308.2,523.3,309.1,477.7,299.4,431.9L299.4,431.9z"/>
</svg>
