<?xml version="1.0" encoding="utf-8"?>
<!-- Generator: Adobe Illustrator 28.0.0, SVG Export Plug-In . SVG Version: 6.00 Build 0)  -->
<svg version="1.1" id="Layer_1" xmlns="http://www.w3.org/2000/svg" xmlns:xlink="http://www.w3.org/1999/xlink" x="0px" y="0px"
	 viewBox="0 0 88 88" style="enable-background:new 0 0 88 88;" xml:space="preserve">
<style type="text/css">
	.st0{fill:#FFFFFF;}
</style>
<g>
	<g transform="scale(5.12,5.12)">
		<path class="st0" d="M5.1,0C2.3,0,0,2.3,0,5.1v7c0,2.8,2.3,5.1,5.1,5.1h7c2.8,0,5.1-2.3,5.1-5.1v-7c0-2.8-2.3-5.1-5.1-5.1H5.1z
			 M13.3,3.1c0.4,0,0.8,0.4,0.8,0.8s-0.4,0.8-0.8,0.8c-0.4,0-0.8-0.4-0.8-0.8S12.9,3.1,13.3,3.1z M8.6,4.3c2.4,0,4.3,1.9,4.3,4.3
			s-1.9,4.3-4.3,4.3S4.3,11,4.3,8.6S6.2,4.3,8.6,4.3z M8.6,5.1c-1.9,0-3.5,1.6-3.5,3.5s1.6,3.5,3.5,3.5s3.5-1.6,3.5-3.5
			S10.5,5.1,8.6,5.1z"/>
	</g>
</g>
</svg>
