<?xml version="1.0" encoding="utf-8"?>
<!-- Generator: Adobe Illustrator 28.0.0, SVG Export Plug-In . SVG Version: 6.00 Build 0)  -->
<svg version="1.1" id="Layer_1" xmlns="http://www.w3.org/2000/svg" xmlns:xlink="http://www.w3.org/1999/xlink" x="0px" y="0px"
	 viewBox="0 0 84 84" style="enable-background:new 0 0 84 84;" xml:space="preserve">
<style type="text/css">
	.st0{fill:#FFFFFF;}
</style>
<g>
	<g transform="scale(5.12,5.12)">
		<path class="st0" d="M14.5,0H2C0.9,0,0,0.9,0,2v12.5c0,1.1,0.9,2,2,2h12.5c1.1,0,2-0.9,2-2V2C16.4,0.9,15.5,0,14.5,0z M5.1,6.2
			v7.4H2.7V6.2H5.1z M2.7,4.1c0-0.5,0.5-1,1.2-1s1.1,0.4,1.2,1c0,0.5-0.4,1-1.2,1C3.2,5.1,2.7,4.6,2.7,4.1z M13.7,13.7h-2.3
			c0,0,0-3.6,0-3.9c0-0.8-0.4-1.6-1.4-1.6h0C9,8.2,8.6,9,8.6,9.8c0,0.4,0,3.9,0,3.9H6.2V6.2h2.3v1c0,0,0.8-1,2.3-1
			c1.6,0,2.8,1.1,2.8,3.2V13.7z"/>
	</g>
</g>
</svg>
