<svg width="118" height="41" viewBox="0 0 118 41" fill="none" xmlns="http://www.w3.org/2000/svg">
<path opacity="0.8" d="M16.3537 18.879C16.5795 18.1956 16.981 17.5848 17.5007 17.1105L8.30486 7.16743C10.5149 5.13405 13.2452 3.65796 16.2729 2.95943L15.677 0.416016C8.71174 2.03724 3.12755 7.25388 0.985352 14.0035L16.3522 18.8814C16.3527 18.8805 16.3532 18.8798 16.3537 18.879Z" fill="white"/>
<path opacity="0.6" d="M20.2558 2.50665C18.8858 2.50665 17.5527 2.66385 16.2724 2.95927L19.3595 16.1363C19.6595 16.0673 19.9715 16.0302 20.2923 16.0302C20.9035 16.0302 21.4833 16.1634 22.0056 16.4008L27.6318 4.1177C25.3873 3.08405 22.8891 2.50665 20.2558 2.50665Z" fill="white"/>
<path opacity="0.6" d="M16.1441 20.1784C16.1441 20.1645 16.145 20.1507 16.1451 20.1367L2.60181 20.1492C2.60181 20.1559 2.60156 20.1627 2.60156 20.1695C2.60156 27.311 6.84373 33.4546 12.9432 36.236L18.5556 23.9458C17.1323 23.2884 16.1441 21.8493 16.1441 20.1784Z" fill="white"/>
<path opacity="0.65" d="M37.1471 25.2862C36.2214 28.334 34.4942 31.0328 32.2104 33.1372L23.1227 23.2111C22.5929 23.7058 21.9335 24.0629 21.2008 24.2266L24.2798 37.3542C20.748 38.212 16.9235 37.9687 13.3287 36.4123C13.1983 36.356 13.0711 36.296 12.9428 36.2365L11.8662 38.5945C14.426 39.7638 17.2713 40.4162 20.2694 40.4162C29.4051 40.4162 37.1264 34.3645 39.6459 26.0514L37.1471 25.2862Z" fill="white"/>
<path d="M24.2746 21.3438C24.0625 22.0699 23.6622 22.7091 23.123 23.211L32.2108 33.1371C34.4965 31.0311 36.2224 28.3368 37.1475 25.2861L24.2746 21.3438Z" fill="white"/>
<path opacity="0.8" d="M32.0741 7.0459L23.0381 17.0704C23.8983 17.8305 24.4414 18.9413 24.4414 20.1795C24.4414 20.5842 24.3825 20.9748 24.2744 21.3445L37.1473 25.2869C37.6397 23.6634 37.9049 21.9413 37.9049 20.1569C37.9049 14.9542 35.6543 10.2774 32.0741 7.0459Z" fill="white"/>
<path d="M19.3598 16.1364L16.2726 2.95898C13.2449 3.65738 10.5147 5.1336 8.30469 7.16698L17.5005 17.1101C18.0176 16.6392 18.6545 16.2985 19.3598 16.1364Z" fill="white"/>
<path d="M104.293 11.6606V17.7267H115.006V22.2598H104.293V30.3708C104.293 31.8985 103.054 33.1371 101.526 33.1371H98.8203V9.81223C98.8203 8.2845 100.059 7.0459 101.587 7.0459H117.815V11.6606H104.293Z" fill="white"/>
<path d="M96.3487 33.1373L84.0002 20.0916L95.7347 7.0459H88.8139L78.2638 18.8242V7.0459H75.5525C74.0247 7.0459 72.7861 8.28437 72.7861 9.81223V33.1373H75.4973C77.025 33.1373 78.2636 31.8988 78.2636 30.3709V21.4335L89.1688 33.1373H96.3487Z" fill="white"/>
<path d="M67.0734 9.28699C65.2689 7.81718 62.6395 7.0459 59.3271 7.0459H51.6609C50.1331 7.0459 48.8945 8.28437 48.8945 9.81223V33.1371H51.5596C53.0873 33.1371 54.3259 31.8987 54.3259 30.3708V24.2771H59.3271C62.6401 24.2771 65.2695 23.4954 67.0739 22.0151C68.8836 20.5306 69.8413 18.362 69.8413 15.6411C69.8413 12.92 68.8835 10.7613 67.0734 9.28699ZM59.1637 11.5381C61.0628 11.5381 62.391 11.9228 63.2423 12.6193C64.0863 13.3099 64.4914 14.3322 64.4914 15.6819C64.4914 17.0313 64.0866 18.0319 63.2443 18.7021C62.3932 19.379 61.0646 19.744 59.1637 19.744H54.3258V11.5383L59.1637 11.5381Z" fill="white"/>
<path d="M21.2013 24.2266C20.9097 24.2916 20.6077 24.3254 20.2965 24.3254C19.6791 24.3254 19.0823 24.1883 18.5557 23.9463L12.9434 36.2365C13.0717 36.296 13.1988 36.356 13.3293 36.4123C16.924 37.9687 20.7484 38.212 24.2804 37.3542L21.2013 24.2266Z" fill="white"/>
</svg>
