<svg width="719" height="612" viewBox="0 0 719 612" fill="none" xmlns="http://www.w3.org/2000/svg">
<g opacity="0.3">
<path d="M396.763 372.366C396.589 372.476 396.414 372.586 396.239 372.695L518.05 567.634C518.227 567.527 518.404 567.421 518.58 567.314L396.763 372.366Z" fill="#D7D4CB"/>
<path d="M388.09 377.038C387.902 377.123 387.713 377.207 387.524 377.29L480.808 586.809C480.998 586.727 481.187 586.644 481.376 586.562L388.09 377.038Z" fill="#D7D4CB"/>
<path d="M390.318 375.983C390.133 376.075 389.948 376.166 389.762 376.256L490.354 582.499C490.54 582.411 490.727 582.322 490.913 582.234L390.318 375.983Z" fill="#D7D4CB"/>
<path d="M392.508 374.854C392.326 374.951 392.145 375.049 391.962 375.145L499.75 577.864C499.933 577.77 500.117 577.675 500.3 577.581L392.508 374.854Z" fill="#D7D4CB"/>
<path d="M394.657 373.648C394.479 373.752 394.301 373.856 394.122 373.959L508.985 572.908C509.165 572.808 509.346 572.707 509.525 572.606L394.657 373.648Z" fill="#D7D4CB"/>
<path d="M400.834 369.591C400.668 369.713 400.501 369.834 400.334 369.955L535.625 556.167C535.794 556.048 535.962 555.93 536.131 555.811L400.834 369.591Z" fill="#D7D4CB"/>
<path d="M398.823 371.014C398.652 371.13 398.482 371.245 398.31 371.36L526.933 562.052C527.106 561.939 527.28 561.828 527.452 561.715L398.823 371.014Z" fill="#D7D4CB"/>
<path d="M371.652 382.138C371.449 382.174 371.246 382.209 371.042 382.244L410.75 607.44C410.954 607.406 411.157 607.371 411.36 607.336L371.652 382.138Z" fill="#D7D4CB"/>
<path d="M369.219 382.528C369.015 382.557 368.811 382.585 368.606 382.613L400.421 608.988C400.626 608.961 400.83 608.933 401.034 608.905L369.219 382.528Z" fill="#D7D4CB"/>
<path d="M364.318 383.06C364.113 383.075 363.907 383.09 363.701 383.103L379.639 611.031C379.845 611.018 380.051 611.004 380.257 610.991L364.318 383.06Z" fill="#D7D4CB"/>
<path d="M366.773 382.838C366.568 382.86 366.363 382.882 366.158 382.902L390.046 610.187C390.252 610.167 390.457 610.146 390.662 610.126L366.773 382.838Z" fill="#D7D4CB"/>
<path d="M374.069 381.659C373.867 381.702 373.665 381.745 373.463 381.786L421.023 605.536C421.225 605.495 421.427 605.452 421.629 605.411L374.069 381.659Z" fill="#D7D4CB"/>
<path d="M385.825 378.012C385.635 378.09 385.443 378.167 385.251 378.243L471.123 590.784C471.316 590.709 471.507 590.633 471.699 590.557L385.825 378.012Z" fill="#D7D4CB"/>
<path d="M376.469 381.096C376.269 381.146 376.069 381.197 375.869 381.246L431.228 603.281C431.429 603.233 431.629 603.183 431.829 603.135L376.469 381.096Z" fill="#D7D4CB"/>
<path d="M383.528 378.906C383.335 378.977 383.141 379.048 382.946 379.117L461.312 594.424C461.506 594.355 461.7 594.286 461.895 594.217L383.528 378.906Z" fill="#D7D4CB"/>
<path d="M381.202 379.718C381.006 379.782 380.81 379.846 380.613 379.909L451.385 597.722C451.582 597.66 451.778 597.597 451.975 597.535L381.202 379.718Z" fill="#D7D4CB"/>
<path d="M378.847 380.449C378.649 380.506 378.451 380.563 378.252 380.619L441.352 600.676C441.551 600.621 441.749 600.564 441.948 600.509L378.847 380.449Z" fill="#D7D4CB"/>
<path d="M716.238 349.884L663.601 344.351C663.575 344.556 663.548 344.76 663.521 344.965L716.174 350.499L716.238 349.884Z" fill="#D7D4CB"/>
<path d="M427.525 330.04L707.431 399.828L707.581 399.228L427.675 329.439C427.626 329.64 427.576 329.84 427.525 330.04Z" fill="#D7D4CB"/>
<path d="M426.877 332.416L704.176 411.93L704.347 411.335L427.048 331.821C426.992 332.019 426.934 332.218 426.877 332.416Z" fill="#D7D4CB"/>
<path d="M428.087 327.64L710.26 387.618L710.389 387.013L428.215 327.035C428.173 327.237 428.13 327.439 428.087 327.64Z" fill="#D7D4CB"/>
<path d="M426.147 334.77L700.501 423.913L700.692 423.325L426.338 334.181C426.275 334.378 426.211 334.574 426.147 334.77Z" fill="#D7D4CB"/>
<path d="M425.335 337.099L696.411 435.763L696.622 435.181L425.546 336.518C425.476 336.712 425.406 336.906 425.335 337.099Z" fill="#D7D4CB"/>
<path d="M428.567 325.221L712.664 375.315L712.771 374.706L428.673 324.612C428.638 324.815 428.604 325.019 428.567 325.221Z" fill="#D7D4CB"/>
<path d="M664.705 334.337L717.276 338.013L717.319 337.395L664.764 333.72C664.745 333.926 664.724 334.131 664.705 334.337Z" fill="#D7D4CB"/>
<path d="M665.52 323.667L717.943 325.497L717.965 324.879L665.557 323.049C665.545 323.255 665.532 323.46 665.52 323.667Z" fill="#D7D4CB"/>
<path d="M424.443 339.395L691.91 447.459L692.142 446.885L424.674 338.821C424.597 339.013 424.521 339.204 424.443 339.395Z" fill="#D7D4CB"/>
<path d="M428.959 322.789L714.635 362.938L714.721 362.326L429.044 322.176C429.016 322.381 428.988 322.585 428.959 322.789Z" fill="#D7D4CB"/>
<path d="M361.858 383.199C361.652 383.207 361.446 383.213 361.24 383.219L369.212 611.524C369.419 611.518 369.625 611.512 369.831 611.506L361.858 383.199Z" fill="#D7D4CB"/>
<path d="M687.253 458.428L423.719 341.095C423.635 341.283 423.552 341.472 423.467 341.66L687.001 458.993L687.253 458.428Z" fill="#D7D4CB"/>
<path d="M422.415 343.887L681.695 470.347L681.967 469.791L422.687 343.331C422.597 343.517 422.506 343.702 422.415 343.887Z" fill="#D7D4CB"/>
<path d="M30.9172 458.426L31.1689 458.991L294.703 341.658C294.618 341.47 294.535 341.282 294.452 341.093L30.9172 458.426Z" fill="#D7D4CB"/>
<path d="M26.0304 446.885L26.2621 447.459L293.73 339.395C293.651 339.204 293.575 339.013 293.498 338.821L26.0304 446.885Z" fill="#D7D4CB"/>
<path d="M296.888 346.077C296.79 345.896 296.692 345.714 296.596 345.532L41.8857 480.963L42.1763 481.51L296.888 346.077Z" fill="#D7D4CB"/>
<path d="M665.966 312.966L718.172 312.966L718.172 312.347L665.98 312.347C665.976 312.553 665.971 312.76 665.966 312.966Z" fill="#D7D4CB"/>
<path d="M36.2057 469.792L36.4771 470.348L295.758 343.888C295.666 343.703 295.576 343.518 295.486 343.332L36.2057 469.792Z" fill="#D7D4CB"/>
<path d="M359.395 383.25C359.291 383.25 359.188 383.252 359.085 383.252C358.982 383.252 358.879 383.25 358.776 383.25L358.776 611.666C358.982 611.667 359.188 611.669 359.395 611.669L359.395 383.25Z" fill="#D7D4CB"/>
<path d="M97.9319 339.794L1.93512 349.884L1.99977 350.499L97.9971 340.409C97.9756 340.204 97.9531 339.999 97.9319 339.794Z" fill="#D7D4CB"/>
<path d="M100.441 357.948L5.40148 374.706L5.50896 375.315L100.547 358.558C100.511 358.355 100.476 358.151 100.441 357.948Z" fill="#D7D4CB"/>
<path d="M99.0288 348.891L3.45197 362.324L3.53815 362.937L99.1123 349.504C99.0837 349.3 99.0569 349.096 99.0288 348.891Z" fill="#D7D4CB"/>
<path d="M142.962 521.795L308.52 361.917C308.376 361.77 308.233 361.621 308.09 361.472L142.523 521.358C142.669 521.504 142.816 521.649 142.962 521.795Z" fill="#D7D4CB"/>
<path d="M97.155 330.661L0.852829 337.395L0.895958 338.013L97.1982 331.279C97.1839 331.073 97.1689 330.867 97.155 330.661Z" fill="#D7D4CB"/>
<path d="M96.6935 321.509L0.206436 324.879L0.228111 325.497L96.7139 322.128C96.7064 321.922 96.7003 321.715 96.6935 321.509Z" fill="#D7D4CB"/>
<path d="M102.168 366.951L7.78248 387.013L7.91119 387.618L102.297 367.556C102.254 367.354 102.21 367.152 102.168 366.951Z" fill="#D7D4CB"/>
<path d="M291.834 334.184L17.4797 423.328L17.6709 423.916L292.025 334.773C291.961 334.577 291.897 334.381 291.834 334.184Z" fill="#D7D4CB"/>
<path d="M21.5493 435.179L21.7609 435.761L292.837 337.097C292.766 336.904 292.695 336.71 292.626 336.516L21.5493 435.179Z" fill="#D7D4CB"/>
<path d="M106.566 384.742L13.8242 411.335L13.9948 411.93L106.736 385.337C106.679 385.138 106.623 384.94 106.566 384.742Z" fill="#D7D4CB"/>
<path d="M104.209 375.886L10.5908 399.228L10.7405 399.828L104.36 376.486C104.31 376.286 104.259 376.086 104.209 375.886Z" fill="#D7D4CB"/>
<path d="M335.225 379.116C335.03 379.046 334.837 378.976 334.643 378.905L256.422 593.816C256.616 593.886 256.811 593.953 257.005 594.022L335.225 379.116Z" fill="#D7D4CB"/>
<path d="M342.304 381.246C342.103 381.197 341.903 381.146 341.704 381.096L286.416 602.842C286.616 602.891 286.816 602.941 287.017 602.989L342.304 381.246Z" fill="#D7D4CB"/>
<path d="M276.915 600.346L339.92 380.62C339.721 380.564 339.523 380.507 339.325 380.449L276.319 600.178C276.517 600.234 276.716 600.29 276.915 600.346Z" fill="#D7D4CB"/>
<path d="M347.131 382.244C346.927 382.21 346.724 382.175 346.521 382.139L306.85 607.124C307.053 607.159 307.256 607.196 307.46 607.23L347.131 382.244Z" fill="#D7D4CB"/>
<path d="M337.561 379.909C337.364 379.847 337.168 379.783 336.972 379.718L266.318 597.169C266.514 597.231 266.711 597.293 266.908 597.355L337.561 379.909Z" fill="#D7D4CB"/>
<path d="M344.709 381.785C344.507 381.744 344.305 381.701 344.104 381.658L296.598 605.156C296.799 605.198 297.001 605.241 297.203 605.283L344.709 381.785Z" fill="#D7D4CB"/>
<path d="M356.931 383.219C356.724 383.213 356.518 383.207 356.312 383.199L348.341 611.462C348.547 611.469 348.753 611.478 348.959 611.485L356.931 383.219Z" fill="#D7D4CB"/>
<path d="M354.469 383.102C354.263 383.089 354.057 383.074 353.852 383.059L337.919 610.904C338.125 610.918 338.33 610.934 338.536 610.948L354.469 383.102Z" fill="#D7D4CB"/>
<path d="M352.014 382.901C351.808 382.88 351.603 382.858 351.398 382.836L327.523 609.995C327.728 610.017 327.933 610.04 328.138 610.061L352.014 382.901Z" fill="#D7D4CB"/>
<path d="M349.566 382.615C349.362 382.588 349.158 382.559 348.954 382.53L317.162 608.736C317.367 608.765 317.571 608.794 317.775 608.822L349.566 382.615Z" fill="#D7D4CB"/>
<path d="M317.838 369.954C317.671 369.833 317.504 369.712 317.337 369.59L182.475 555.213C182.643 555.332 182.811 555.451 182.98 555.57L317.838 369.954Z" fill="#D7D4CB"/>
<path d="M310.27 363.652C310.121 363.509 309.972 363.366 309.824 363.222L150.052 528.671C150.203 528.812 150.353 528.953 150.504 529.094L310.27 363.652Z" fill="#D7D4CB"/>
<path d="M319.863 371.36C319.692 371.245 319.521 371.13 319.351 371.014L191.115 561.131C191.287 561.245 191.458 561.359 191.631 561.473L319.863 371.36Z" fill="#D7D4CB"/>
<path d="M315.865 368.478C315.702 368.352 315.539 368.225 315.378 368.097L174.04 549.001C174.204 549.126 174.369 549.25 174.533 549.375L315.865 368.478Z" fill="#D7D4CB"/>
<path d="M312.079 365.323C311.925 365.186 311.771 365.049 311.619 364.91L157.821 535.72C157.976 535.856 158.13 535.992 158.286 536.128L312.079 365.323Z" fill="#D7D4CB"/>
<path d="M313.943 366.935C313.785 366.804 313.627 366.671 313.469 366.538L165.818 542.502C165.977 542.633 166.136 542.764 166.296 542.895L313.943 366.935Z" fill="#D7D4CB"/>
<path d="M328.41 376.256C328.224 376.166 328.039 376.075 327.854 375.984L227.5 581.741C227.686 581.83 227.872 581.919 228.058 582.008L328.41 376.256Z" fill="#D7D4CB"/>
<path d="M332.92 378.241C332.728 378.165 332.537 378.088 332.346 378.01L246.647 590.122C246.839 590.198 247.03 590.275 247.222 590.351L332.92 378.241Z" fill="#D7D4CB"/>
<path d="M330.648 377.289C330.46 377.206 330.271 377.122 330.083 377.037L237.004 586.097C237.193 586.18 237.381 586.263 237.57 586.346L330.648 377.289Z" fill="#D7D4CB"/>
<path d="M321.935 372.697C321.759 372.588 321.585 372.479 321.41 372.368L199.946 566.752C200.122 566.86 200.297 566.969 200.473 567.076L321.935 372.697Z" fill="#D7D4CB"/>
<path d="M326.21 375.146C326.027 375.05 325.846 374.952 325.664 374.854L218.148 577.062C218.331 577.158 218.514 577.253 218.697 577.348L326.21 375.146Z" fill="#D7D4CB"/>
<path d="M324.05 373.958C323.871 373.855 323.692 373.751 323.514 373.647L208.958 572.064C209.138 572.166 209.318 572.266 209.498 572.367L324.05 373.958Z" fill="#D7D4CB"/>
<path d="M330.648 248.022L252.558 72.6278C252.369 72.7116 252.181 72.7952 251.992 72.8793L330.083 248.273C330.271 248.189 330.46 248.105 330.648 248.022Z" fill="#D7D4CB"/>
<path d="M324.05 251.354L228.062 85.0973C227.883 85.2005 227.704 85.3033 227.526 85.4068L323.514 251.664C323.692 251.56 323.871 251.456 324.05 251.354Z" fill="#D7D4CB"/>
<path d="M321.935 252.616L220.205 89.8141C220.03 89.9233 219.856 90.0342 219.681 90.1439L321.41 252.944C321.585 252.834 321.759 252.724 321.935 252.616Z" fill="#D7D4CB"/>
<path d="M328.409 249.055L244.247 76.4977C244.062 76.588 243.877 76.6787 243.691 76.7695L327.853 249.327C328.038 249.236 328.223 249.145 328.409 249.055Z" fill="#D7D4CB"/>
<path d="M326.212 250.167L236.081 80.6565C235.899 80.7531 235.717 80.8506 235.536 80.9477L325.666 250.459C325.848 250.361 326.029 250.263 326.212 250.167Z" fill="#D7D4CB"/>
<path d="M319.863 253.951L212.518 94.8059C212.347 94.9211 212.176 95.0357 212.005 95.1514L319.351 254.298C319.521 254.182 319.692 254.066 319.863 253.951Z" fill="#D7D4CB"/>
<path d="M310.27 261.66L176.934 123.587C176.785 123.73 176.636 123.873 176.488 124.016L309.824 262.09C309.972 261.946 310.121 261.803 310.27 261.66Z" fill="#D7D4CB"/>
<path d="M312.079 259.986L183.641 117.341C183.488 117.479 183.335 117.618 183.182 117.756L311.619 260.399C311.771 260.261 311.925 260.124 312.079 259.986Z" fill="#D7D4CB"/>
<path d="M317.84 255.359L205.009 100.06C204.842 100.181 204.676 100.304 204.509 100.425L317.339 255.723C317.506 255.6 317.673 255.479 317.84 255.359Z" fill="#D7D4CB"/>
<path d="M315.865 256.834L197.687 105.572C197.524 105.699 197.361 105.825 197.199 105.953L315.378 257.215C315.539 257.087 315.702 256.96 315.865 256.834Z" fill="#D7D4CB"/>
<path d="M313.943 258.377L190.561 111.335C190.402 111.468 190.245 111.6 190.087 111.733L313.469 258.774C313.626 258.641 313.785 258.509 313.943 258.377Z" fill="#D7D4CB"/>
<path d="M332.92 247.07L260.997 69.0543C260.806 69.1314 260.615 69.2089 260.423 69.2864L332.346 247.301C332.537 247.223 332.728 247.146 332.92 247.07Z" fill="#D7D4CB"/>
<path d="M308.52 263.395L170.445 130.059C170.302 130.207 170.159 130.356 170.017 130.505L308.09 263.841C308.233 263.692 308.376 263.543 308.52 263.395Z" fill="#D7D4CB"/>
<path d="M335.225 246.195L269.557 65.7763C269.364 65.8466 269.169 65.9165 268.976 65.9871L334.643 246.406C334.836 246.335 335.03 246.265 335.225 246.195Z" fill="#D7D4CB"/>
<path d="M337.558 245.403L278.227 62.8027C278.031 62.8663 277.835 62.9301 277.639 62.9942L336.969 245.594C337.165 245.529 337.361 245.465 337.558 245.403Z" fill="#D7D4CB"/>
<path d="M300.729 272.92L141.581 165.574C141.466 165.745 141.352 165.916 141.236 166.088L300.382 273.433C300.497 273.261 300.612 273.09 300.729 272.92Z" fill="#D7D4CB"/>
<path d="M112.419 222.546L21.7602 189.549L21.5487 190.13L112.206 223.127C112.277 222.933 112.348 222.74 112.419 222.546Z" fill="#D7D4CB"/>
<path d="M102.296 257.757L7.91158 237.695L7.78288 238.3L102.169 258.362C102.211 258.16 102.253 257.958 102.296 257.757Z" fill="#D7D4CB"/>
<path d="M100.544 266.754L5.50838 249.996L5.4009 250.605L100.439 267.363C100.475 267.16 100.508 266.956 100.544 266.754Z" fill="#D7D4CB"/>
<path d="M109.426 231.211L17.6704 201.398L17.4792 201.987L109.234 231.8C109.298 231.604 109.362 231.408 109.426 231.211Z" fill="#D7D4CB"/>
<path d="M106.737 239.974L13.9944 213.381L13.8238 213.976L106.567 240.569C106.623 240.371 106.68 240.173 106.737 239.974Z" fill="#D7D4CB"/>
<path d="M104.36 248.826L10.7407 225.484L10.5911 226.084L104.212 249.427C104.261 249.226 104.311 249.026 104.36 248.826Z" fill="#D7D4CB"/>
<path d="M96.7139 303.183L0.22873 299.814L0.207047 300.432L96.6939 303.802C96.7007 303.596 96.7066 303.389 96.7139 303.183Z" fill="#D7D4CB"/>
<path d="M96.5469 312.965C96.5467 312.862 96.5454 312.759 96.5454 312.655C96.5454 312.552 96.5467 312.449 96.5469 312.346L-0.000129646 312.346L-0.0001297 312.965L96.5469 312.965Z" fill="#D7D4CB"/>
<path d="M97.1982 294.033L0.896119 287.299L0.85299 287.916L97.1556 294.65C97.1695 294.445 97.1839 294.239 97.1982 294.033Z" fill="#D7D4CB"/>
<path d="M97.9971 284.903L1.99901 274.813L1.93436 275.429L97.9318 285.519C97.9528 285.313 97.9756 285.108 97.9971 284.903Z" fill="#D7D4CB"/>
<path d="M99.1123 275.807L3.53724 262.375L3.45106 262.988L99.0261 276.42C99.0543 276.216 99.0835 276.012 99.1123 275.807Z" fill="#D7D4CB"/>
<path d="M119.313 205.562L31.1712 166.319L30.9195 166.884L119.059 206.126C119.143 205.938 119.228 205.75 119.313 205.562Z" fill="#D7D4CB"/>
<path d="M302.153 270.909L146.856 158.079C146.734 158.245 146.612 158.412 146.491 158.579L301.789 271.409C301.91 271.242 302.031 271.075 302.153 270.909Z" fill="#D7D4CB"/>
<path d="M305.204 267.041L158.163 143.659C158.03 143.817 157.898 143.975 157.765 144.133L304.807 267.516C304.939 267.357 305.071 267.199 305.204 267.041Z" fill="#D7D4CB"/>
<path d="M136.575 173.251L54.728 122.107L54.4002 122.632L136.246 173.775C136.356 173.6 136.466 173.426 136.575 173.251Z" fill="#D7D4CB"/>
<path d="M303.645 268.947L152.383 150.768C152.256 150.931 152.128 151.093 152.002 151.256L303.264 269.435C303.39 269.271 303.517 269.109 303.645 268.947Z" fill="#D7D4CB"/>
<path d="M127.378 189.102L42.1774 143.8L41.8868 144.346L127.086 189.647C127.183 189.465 127.281 189.284 127.378 189.102Z" fill="#D7D4CB"/>
<path d="M306.831 265.188L164.188 136.751C164.049 136.905 163.91 137.057 163.772 137.21L306.418 265.648C306.555 265.495 306.692 265.341 306.831 265.188Z" fill="#D7D4CB"/>
<path d="M131.838 181.099L48.2632 132.847L47.9538 133.383L131.527 181.634C131.63 181.455 131.734 181.277 131.838 181.099Z" fill="#D7D4CB"/>
<path d="M123.199 197.263L36.4761 154.965L36.2048 155.522L122.926 197.818C123.016 197.633 123.108 197.448 123.199 197.263Z" fill="#D7D4CB"/>
<path d="M666.044 302.247L717.963 300.434L717.941 299.816L666.037 301.628C666.039 301.835 666.042 302.041 666.044 302.247Z" fill="#D7D4CB"/>
<path d="M115.717 213.995L26.2634 177.854L26.0317 178.427L115.483 214.568C115.561 214.377 115.639 214.186 115.717 213.995Z" fill="#D7D4CB"/>
<path d="M419.126 275.504L622.776 148.249C622.67 148.072 622.565 147.895 622.459 147.718L418.797 274.98C418.907 275.154 419.017 275.329 419.126 275.504Z" fill="#D7D4CB"/>
<path d="M420.389 277.621L628.181 157.652C628.081 157.472 627.981 157.291 627.881 157.111L420.078 277.086C420.182 277.264 420.286 277.442 420.389 277.621Z" fill="#D7D4CB"/>
<path d="M422.687 281.981L637.96 176.986C637.874 176.798 637.787 176.611 637.7 176.424L422.415 281.426C422.506 281.61 422.597 281.796 422.687 281.981Z" fill="#D7D4CB"/>
<path d="M417.79 273.433L617.04 139.037C616.928 138.864 616.815 138.691 616.702 138.518L417.443 272.92C417.56 273.09 417.675 273.261 417.79 273.433Z" fill="#D7D4CB"/>
<path d="M408.349 262.09L576.05 88.4304C575.904 88.2847 575.758 88.1385 575.612 87.9931L407.904 261.66C408.052 261.803 408.201 261.946 408.349 262.09Z" fill="#D7D4CB"/>
<path d="M414.907 269.436L604.596 121.235C604.472 121.07 604.347 120.905 604.223 120.741L414.527 268.948C414.654 269.11 414.781 269.272 414.907 269.436Z" fill="#D7D4CB"/>
<path d="M411.755 265.648L590.91 104.337C590.775 104.181 590.64 104.025 590.504 103.87L411.342 265.188C411.481 265.341 411.618 265.495 411.755 265.648Z" fill="#D7D4CB"/>
<path d="M410.083 263.84L583.622 96.2545C583.481 96.1038 583.34 95.9534 583.199 95.8029L409.653 263.394C409.797 263.542 409.94 263.691 410.083 263.84Z" fill="#D7D4CB"/>
<path d="M423.72 284.218L642.325 186.888C642.245 186.698 642.165 186.508 642.085 186.318L423.468 283.652C423.553 283.84 423.636 284.029 423.72 284.218Z" fill="#D7D4CB"/>
<path d="M416.382 271.41L610.976 130.03C610.857 129.861 610.739 129.692 610.621 129.523L416.019 270.91C416.141 271.076 416.262 271.243 416.382 271.41Z" fill="#D7D4CB"/>
<path d="M421.574 279.78L633.241 167.235C633.148 167.051 633.055 166.867 632.961 166.683L421.282 279.235C421.38 279.416 421.478 279.598 421.574 279.78Z" fill="#D7D4CB"/>
<path d="M428.215 298.277L660.86 248.827C660.823 248.624 660.785 248.421 660.747 248.219L428.087 297.672C428.131 297.873 428.173 298.075 428.215 298.277Z" fill="#D7D4CB"/>
<path d="M428.673 300.699L662.648 259.443C662.618 259.239 662.588 259.035 662.557 258.831L428.567 300.09C428.604 300.292 428.639 300.496 428.673 300.699Z" fill="#D7D4CB"/>
<path d="M714.721 262.987L714.635 262.374L663.987 269.493C664.01 269.697 664.033 269.902 664.057 270.107L714.721 262.987Z" fill="#D7D4CB"/>
<path d="M424.673 286.49L646.332 196.934C646.259 196.741 646.186 196.548 646.113 196.356L424.442 285.916C424.52 286.107 424.597 286.299 424.673 286.49Z" fill="#D7D4CB"/>
<path d="M665.093 280.804L716.238 275.428L716.174 274.813L665.044 280.187C665.061 280.392 665.077 280.598 665.093 280.804Z" fill="#D7D4CB"/>
<path d="M665.755 291.522L717.319 287.917L717.276 287.3L665.726 290.904C665.736 291.11 665.746 291.316 665.755 291.522Z" fill="#D7D4CB"/>
<path d="M426.339 291.129L653.255 217.399C653.196 217.202 653.136 217.004 653.077 216.807L426.148 290.54C426.212 290.736 426.276 290.932 426.339 291.129Z" fill="#D7D4CB"/>
<path d="M425.546 288.795L649.976 207.109C649.91 206.914 649.844 206.718 649.777 206.523L425.335 288.213C425.406 288.407 425.476 288.601 425.546 288.795Z" fill="#D7D4CB"/>
<path d="M427.674 295.875L658.699 238.274C658.654 238.073 658.609 237.871 658.564 237.67L427.524 295.275C427.575 295.475 427.626 295.675 427.674 295.875Z" fill="#D7D4CB"/>
<path d="M427.048 293.49L656.164 227.792C656.112 227.593 656.059 227.393 656.006 227.194L426.877 292.895C426.935 293.093 426.992 293.292 427.048 293.49Z" fill="#D7D4CB"/>
<path d="M413.365 267.516L597.904 112.669C597.775 112.508 597.644 112.348 597.514 112.188L412.967 267.041C413.1 267.199 413.233 267.357 413.365 267.516Z" fill="#D7D4CB"/>
<path d="M376.468 244.219L435.27 8.37953C435.07 8.32878 434.869 8.27927 434.669 8.22899L375.868 244.068C376.069 244.117 376.269 244.168 376.468 244.219Z" fill="#D7D4CB"/>
<path d="M383.527 246.407L466.605 18.1546C466.411 18.0827 466.218 18.0117 466.024 17.9402L382.946 246.196C383.14 246.266 383.334 246.336 383.527 246.407Z" fill="#D7D4CB"/>
<path d="M381.2 245.595L456.28 14.5213C456.085 14.4564 455.889 14.3916 455.693 14.3271L380.611 245.404C380.808 245.466 381.004 245.53 381.2 245.595Z" fill="#D7D4CB"/>
<path d="M378.846 244.864L445.831 11.261C445.633 11.2032 445.435 11.1445 445.237 11.087L378.252 244.693C378.45 244.749 378.648 244.807 378.846 244.864Z" fill="#D7D4CB"/>
<path d="M371.65 243.176L413.865 3.76357C413.662 3.72737 413.459 3.69069 413.256 3.6548L371.041 243.07C371.244 243.105 371.448 243.139 371.65 243.176Z" fill="#D7D4CB"/>
<path d="M374.07 243.654L424.61 5.87897C424.409 5.83551 424.207 5.79251 424.005 5.74951L373.464 243.527C373.666 243.568 373.868 243.611 374.07 243.654Z" fill="#D7D4CB"/>
<path d="M369.218 242.783L403.053 2.03418C402.849 2.00525 402.645 1.97609 402.44 1.94748L368.605 242.698C368.809 242.725 369.014 242.754 369.218 242.783Z" fill="#D7D4CB"/>
<path d="M392.186 0.691818C391.98 0.670166 391.775 0.649414 391.57 0.628067L366.158 242.41C366.363 242.431 366.568 242.452 366.773 242.475L392.186 0.691818Z" fill="#D7D4CB"/>
<path d="M390.317 249.329L496.685 31.2425C496.5 31.1502 496.316 31.0577 496.131 30.9656L389.761 249.057C389.947 249.147 390.132 249.238 390.317 249.329Z" fill="#D7D4CB"/>
<path d="M400.834 255.723L543.096 59.9159C542.931 59.7923 542.766 59.6684 542.6 59.5451L400.333 255.359C400.501 255.479 400.668 255.601 400.834 255.723Z" fill="#D7D4CB"/>
<path d="M396.763 252.944L525.162 47.4622C524.989 47.3507 524.815 47.239 524.641 47.1276L396.238 252.615C396.414 252.724 396.588 252.834 396.763 252.944Z" fill="#D7D4CB"/>
<path d="M398.822 254.298L534.241 53.5299C534.072 53.4123 533.902 53.2955 533.732 53.1783L398.309 253.951C398.48 254.066 398.651 254.182 398.822 254.298Z" fill="#D7D4CB"/>
<path d="M404.702 258.776L560.086 73.5974C559.93 73.4623 559.774 73.3268 559.618 73.1923L404.228 258.379C404.387 258.511 404.545 258.643 404.702 258.776Z" fill="#D7D4CB"/>
<path d="M385.824 247.301L476.788 22.1575C476.598 22.0787 476.407 21.9991 476.216 21.9207L385.25 247.07C385.442 247.146 385.634 247.223 385.824 247.301Z" fill="#D7D4CB"/>
<path d="M402.795 257.215L551.715 66.6058C551.554 66.4765 551.393 66.348 551.232 66.219L402.307 256.834C402.47 256.96 402.633 257.087 402.795 257.215Z" fill="#D7D4CB"/>
<path d="M406.555 260.399L568.202 80.8724C568.051 80.7321 567.899 80.5922 567.748 80.4521L406.095 259.986C406.249 260.123 406.403 260.261 406.555 260.399Z" fill="#D7D4CB"/>
<path d="M388.09 248.273L486.821 26.52C486.634 26.4343 486.446 26.3492 486.258 26.2639L387.525 248.022C387.714 248.105 387.902 248.189 388.09 248.273Z" fill="#D7D4CB"/>
<path d="M392.508 250.459L506.373 36.3105C506.192 36.2117 506.011 36.113 505.83 36.0145L391.963 250.167C392.145 250.263 392.327 250.361 392.508 250.459Z" fill="#D7D4CB"/>
<path d="M394.657 251.664L515.869 41.7188C515.692 41.6135 515.514 41.5087 515.336 41.4037L394.122 251.354C394.301 251.456 394.479 251.56 394.657 251.664Z" fill="#D7D4CB"/>
</g>
</svg>
