<?xml version="1.0" encoding="utf-8"?>
<!-- Generator: Adobe Illustrator 28.0.0, SVG Export Plug-In . SVG Version: 6.00 Build 0)  -->
<svg version="1.1" id="Layer_1" xmlns="http://www.w3.org/2000/svg" xmlns:xlink="http://www.w3.org/1999/xlink" x="0px" y="0px"
	 viewBox="0 0 84 84" style="enable-background:new 0 0 84 84;" xml:space="preserve">
<style type="text/css">
	.st0{fill:#FFFFFF;}
</style>
<g>
	<g transform="scale(5.12,5.12)">
		<path class="st0" d="M14.5,0H2C0.9,0,0,0.9,0,2v12.5c0,1.1,0.9,2,2,2h12.5c1.1,0,2-0.9,2-2V2C16.4,0.9,15.5,0,14.5,0z M12.9,7.2
			c-0.1,0-0.2,0-0.3,0c-1,0-1.9-0.5-2.4-1.3c0,2.1,0,4.5,0,4.5c0,1.8-1.5,3.3-3.3,3.3s-3.3-1.5-3.3-3.3S5,7,6.8,7C6.9,7,7,7,7,7v1.6
			c-0.1,0-0.1,0-0.2,0c-0.9,0-1.7,0.8-1.7,1.7s0.8,1.7,1.7,1.7c0.9,0,1.8-0.7,1.8-1.7c0,0,0-7.7,0-7.7h1.6c0.1,1.4,1.3,2.5,2.7,2.6
			V7.2z"/>
	</g>
</g>
</svg>
