<?xml version="1.0" encoding="utf-8"?>
<!-- Generator: Adobe Illustrator 28.0.0, SVG Export Plug-In . SVG Version: 6.00 Build 0)  -->
<svg version="1.1" id="Layer_1" xmlns="http://www.w3.org/2000/svg" xmlns:xlink="http://www.w3.org/1999/xlink" x="0px" y="0px"
	 viewBox="0 0 84 84" style="enable-background:new 0 0 84 84;" xml:space="preserve">
<style type="text/css">
	.st0{fill:#FFFFFF;}
</style>
<g>
	<g transform="scale(5.12,5.12)">
		<path class="st0" d="M2.7,0C1.2,0,0,1.2,0,2.7v10.9c0,1.5,1.2,2.7,2.7,2.7h10.9c1.5,0,2.7-1.2,2.7-2.7V2.7c0-1.5-1.2-2.7-2.7-2.7
			H2.7z M3.5,3.5h3.1l2.2,3.1l2.7-3.1h1L9.3,7.3l4,5.6h-3.1L7.6,9.3l-3.1,3.6h-1l3.6-4.3L3.5,3.5z M5,4.3l5.5,7.8h1.2L6.2,4.3H5z"/>
	</g>
</g>
</svg>
