<?xml version="1.0" encoding="utf-8"?>
<!-- Generator: Adobe Illustrator 28.0.0, SVG Export Plug-In . SVG Version: 6.00 Build 0)  -->
<svg version="1.1" id="Layer_1" xmlns="http://www.w3.org/2000/svg" xmlns:xlink="http://www.w3.org/1999/xlink" x="0px" y="0px"
	 viewBox="0 0 92.1 78.1" style="enable-background:new 0 0 92.1 78.1;" xml:space="preserve">
<style type="text/css">
	.st0{fill:#FFFFFF;}
</style>
<g>
	<g transform="scale(5.12,5.12)">
		<path class="st0" d="M6.7,0C3,0,0,2.5,0,5.7c0,1.7,0.8,3.2,2.3,4.3l-1,3.1l3.2-2c0.9,0.3,2,0.4,3,0.3c0.9,1.7,2.8,2.8,5,2.8
			c0.7,0,1.3-0.1,1.9-0.3l2.7,1.5l-0.7-2.6c1-0.8,1.7-2,1.7-3.3c0-2.4-2.1-4.4-4.8-4.6C12.7,2,9.9,0,6.7,0L6.7,0z M4.3,3.1
			c0.4,0,0.8,0.4,0.8,0.8S4.8,4.7,4.3,4.7S3.5,4.3,3.5,3.9S3.9,3.1,4.3,3.1z M9,3.1c0.4,0,0.8,0.4,0.8,0.8S9.4,4.7,9,4.7
			S8.2,4.3,8.2,3.9S8.6,3.1,9,3.1z M12.5,5.5c2.6,0,4.7,1.8,4.7,3.9c0,1.2-0.6,2.2-1.6,2.9l-0.2,0.2l0.4,1.2l-1.3-0.7L14.4,13
			c-0.5,0.2-1.2,0.3-1.8,0.3c-2.6,0-4.7-1.8-4.7-3.9S9.9,5.5,12.5,5.5L12.5,5.5z M10.8,7.8c-0.3,0-0.6,0.3-0.6,0.6S10.5,9,10.8,9
			s0.6-0.3,0.6-0.6S11.1,7.8,10.8,7.8z M14.3,7.8c-0.3,0-0.6,0.3-0.6,0.6S14,9,14.3,9s0.6-0.3,0.6-0.6S14.6,7.8,14.3,7.8z"/>
	</g>
</g>
</svg>
