<?xml version="1.0" encoding="utf-8"?>
<!-- Generator: Adobe Illustrator 28.0.0, SVG Export Plug-In . SVG Version: 6.00 Build 0)  -->
<svg version="1.1" id="Layer_1" xmlns="http://www.w3.org/2000/svg" xmlns:xlink="http://www.w3.org/1999/xlink" x="0px" y="0px"
	 viewBox="0 0 92 92" style="enable-background:new 0 0 92 92;" xml:space="preserve">
<style type="text/css">
	.st0{fill:#FFFFFF;}
</style>
<g>
	<g transform="scale(5.12,5.12)">
		<path class="st0" d="M9,0C4,0,0,4,0,9c0,1.5,0.4,3.1,1.2,4.4L0,17.5c0,0.1,0,0.3,0.1,0.4C0.2,17.9,0.3,18,0.4,18c0,0,0.1,0,0.1,0
			l4.3-1.1C6,17.6,7.5,18,9,18c5,0,9-4,9-9S13.9,0,9,0z M13.5,12.2c-0.2,0.5-1.1,1-1.6,1.1c-0.4,0.1-0.9,0.1-1.5-0.1
			c-0.3-0.1-0.8-0.2-1.3-0.5c-2.3-1-3.8-3.3-3.9-3.4C5.1,9.1,4.3,8,4.3,6.9S4.9,5.2,5.1,5c0.2-0.2,0.5-0.3,0.6-0.3
			c0.2,0,0.3,0,0.4,0c0.1,0,0.3-0.1,0.5,0.4c0.2,0.5,0.7,1.6,0.7,1.7c0.1,0.1,0.1,0.2,0,0.4C7.3,7.3,7.3,7.4,7.2,7.6
			C7.1,7.7,6.9,7.9,6.8,8C6.7,8.1,6.6,8.2,6.7,8.4C6.9,8.6,7.3,9.4,8,10c0.9,0.8,1.6,1,1.9,1.1c0.2,0.1,0.4,0.1,0.5-0.1
			c0.1-0.2,0.6-0.7,0.7-0.9c0.2-0.2,0.3-0.2,0.5-0.1c0.2,0.1,1.3,0.6,1.6,0.7c0.2,0.1,0.4,0.2,0.4,0.3
			C13.7,11.2,13.7,11.6,13.5,12.2z"/>
	</g>
</g>
</svg>
