<?xml version="1.0" encoding="utf-8"?>
<!-- Generator: Adobe Illustrator 28.0.0, SVG Export Plug-In . SVG Version: 6.00 Build 0)  -->
<svg version="1.1" id="Layer_1" xmlns="http://www.w3.org/2000/svg" xmlns:xlink="http://www.w3.org/1999/xlink" x="0px" y="0px"
	 viewBox="0 0 84 78" style="enable-background:new 0 0 84 78;" xml:space="preserve">
<style type="text/css">
	.st0{fill-rule:evenodd;clip-rule:evenodd;fill:#FFFFFF;}
</style>
<g>
	<g transform="scale(5.12,5.12)">
		<path class="st0" d="M3.5,0l1.2,3.5v2.3h0.8V3.5L6.6,0H5.9L5.1,2.3L4.3,0H3.5z M7.8,1.6c-0.4,0-0.6,0.1-0.9,0.3
			C6.7,2,6.6,2.2,6.6,2.7v2c0,0.4,0.1,0.6,0.3,0.9c0.2,0.2,0.5,0.3,0.9,0.3c0.4,0,0.6-0.1,0.9-0.3C8.9,5.3,9,5.1,9,4.7v-2
			c0-0.3-0.1-0.7-0.3-0.9C8.4,1.6,8.2,1.6,7.8,1.6L7.8,1.6z M9.8,1.6v3.5c0,0.4,0.4,0.8,0.8,0.8c0.4,0,0.6-0.2,0.8-0.4v0.4h0.8V1.6
			h-0.8v3.1c0,0.3-0.3,0.4-0.4,0.4c-0.1,0-0.4,0-0.4-0.4V1.6H9.8z M7.8,2.3c0.1,0,0.4,0,0.4,0.4v2c0,0.4-0.3,0.4-0.4,0.4
			c-0.1,0-0.4,0-0.4-0.4v-2C7.4,2.4,7.6,2.3,7.8,2.3z M2.3,6.6C0.9,6.6,0,7.6,0,9v3.7c0,1.4,0.9,2.5,2.3,2.5h11.7
			c1.4,0,2.3-0.9,2.3-2.3V9c0-1.4-0.9-2.3-2.3-2.3H2.3z M3.1,8.2h2.3V9H4.7v4.7H3.9V9H3.1V8.2z M8.6,8.2h0.8v1.6
			c0.1-0.1,0.2-0.3,0.4-0.3c0.1-0.1,0.3-0.1,0.4-0.1c0.3,0,0.5,0.1,0.6,0.3c0.1,0.2,0.2,0.4,0.2,0.7v2.3c0,0.3-0.1,0.5-0.2,0.6
			c-0.1,0.2-0.3,0.3-0.6,0.4c-0.4,0-0.6-0.2-0.8-0.4v0.4H8.6L8.6,8.2z M5.5,9.4h0.8v3.1c0,0.1,0.1,0.4,0.4,0.4C7,12.9,7,12.6,7,12.5
			V9.4h0.8v4.3H7v-0.4c-0.1,0.2-0.2,0.2-0.4,0.3c-0.2,0.1-0.3,0.1-0.5,0.1c-0.2,0-0.4-0.2-0.5-0.3c-0.1-0.1-0.2-0.2-0.2-0.5L5.5,9.4
			z M12.6,9.4c0.4,0,0.6,0.1,0.8,0.3c0.2,0.2,0.3,0.5,0.3,0.8v1.2h-1.6v0.6c0,0.2,0,0.4,0.1,0.4c0.1,0.1,0.2,0.1,0.3,0.1
			c0.2,0,0.3,0,0.3-0.1c0.1-0.1,0.1-0.2,0.1-0.5v-0.2h0.8v0.2c0,0.4,0,0.7-0.2,1c-0.2,0.2-0.5,0.3-0.9,0.3c-0.4,0-0.7-0.1-0.9-0.3
			c-0.2-0.2-0.3-0.5-0.3-0.9v-1.8c0-0.4,0.1-0.6,0.4-0.8C11.9,9.5,12.2,9.4,12.6,9.4L12.6,9.4z M9.8,10c-0.2,0-0.4,0.2-0.4,0.4v2.3
			c0,0.1,0.2,0.2,0.4,0.2s0.4-0.2,0.4-0.4v-2C10.2,10.2,10,10,9.8,10z M12.5,10.2c-0.2,0-0.4,0.2-0.4,0.4v0.4h0.8v-0.4
			C12.9,10.3,12.7,10.2,12.5,10.2z"/>
	</g>
</g>
</svg>
