<svg width="110" height="111" viewBox="0 0 110 111" fill="none" xmlns="http://www.w3.org/2000/svg">
<g clip-path="url(#clip0_367_17935)">
<path d="M80.3047 68.3523V76.595C80.3047 77.599 81.1195 78.4138 82.1235 78.4138C83.1274 78.4138 83.9422 77.599 83.9422 76.595V68.3523H80.3047Z" fill="#0F3780"/>
<path d="M83.942 76.5951V82.2915C83.942 88.9046 78.5584 94.2809 71.9526 94.2809H66.489V108.242C66.489 108.918 66.118 109.537 65.5214 109.857C65.2522 109.995 64.9612 110.061 64.6702 110.061C64.3137 110.061 63.9573 109.959 63.6444 109.748L40.997 94.2809H12.5368C5.93099 94.2809 0.554688 88.9046 0.554688 82.2915V64.7148C0.554688 65.7188 1.3695 66.5336 2.37346 66.5336C3.37743 66.5336 4.19224 65.7188 4.19224 64.7148V82.2915C4.19224 86.8967 7.93892 90.6433 12.5368 90.6433H41.5572C41.9282 90.6433 42.2847 90.7525 42.583 90.9562L62.8515 104.801V92.4621C62.8515 91.4581 63.6663 90.6433 64.6702 90.6433H71.9526C76.5578 90.6433 80.3044 86.8967 80.3044 82.2915V76.5951C80.3044 77.5991 81.1193 78.4139 82.1232 78.4139C83.1272 78.4139 83.942 77.5991 83.942 76.5951Z" fill="#0A2555"/>
<path d="M71.6826 0.577393H38.2026C37.7006 0.577393 37.2423 0.781096 36.9149 1.10848C36.5875 1.43586 36.3838 1.89419 36.3838 2.39617C36.3838 3.40014 37.1986 4.21495 38.2026 4.21495H71.6826C72.1846 4.21495 72.6429 4.01124 72.9703 3.68386C73.2977 3.35648 73.5014 2.89815 73.5014 2.39617C73.5014 1.3922 72.6866 0.577393 71.6826 0.577393Z" fill="#0EB4DA"/>
<path d="M109.441 12.7487V56.1883C109.441 62.896 103.985 68.3523 97.2702 68.3523H95.6333C96.1352 68.3523 96.5936 68.1486 96.921 67.8212C97.2483 67.4939 97.452 67.0355 97.452 66.5335C97.452 65.5296 96.6372 64.7148 95.6333 64.7148H97.2702C101.977 64.7148 105.804 60.8881 105.804 56.1883V12.7487C105.804 8.04893 101.977 4.21495 97.2702 4.21495H71.6836C72.1856 4.21495 72.6439 4.01124 72.9713 3.68386C73.2987 3.35648 73.5024 2.89815 73.5024 2.39617C73.5024 1.3922 72.6876 0.577393 71.6836 0.577393H97.2702C103.985 0.577393 109.441 6.041 109.441 12.7487Z" fill="#0EB4DA"/>
<path d="M77.7297 68.3525H68.3157L45.2536 84.1031C44.948 84.3141 44.5916 84.4159 44.2278 84.4159C43.9368 84.4159 43.6458 84.3504 43.3839 84.2049C42.7873 83.8921 42.409 83.2737 42.409 82.5971V68.3525H36.8436C30.1286 68.3525 24.665 62.8961 24.665 56.1885V31.2349H28.3026V56.1885C28.3026 60.8882 32.1366 64.7149 36.8436 64.7149H44.2278C45.239 64.7149 46.0466 65.5297 46.0466 66.5337V79.156L66.7297 65.035C67.0353 64.824 67.3918 64.7149 67.7555 64.7149H77.7297C77.2277 64.7149 76.7766 64.9186 76.442 65.246C76.1146 65.5734 75.9109 66.0317 75.9109 66.5337C75.9109 67.5377 76.7257 68.3525 77.7297 68.3525Z" fill="#0F3780"/>
<path d="M28.302 27.5972V31.2347H12.5368C7.93892 31.2347 4.19224 34.9741 4.19224 39.5793V64.7148C4.19224 65.7187 3.37743 66.5336 2.37346 66.5336C1.3695 66.5336 0.554688 65.7187 0.554688 64.7148V39.5793C0.554688 32.9735 5.93099 27.5972 12.5368 27.5972H28.302Z" fill="#0F3780"/>
<path d="M38.204 4.21495H36.8436C32.1366 4.21495 28.3026 8.04893 28.3026 12.7487V27.5971H24.665V12.7487C24.665 6.041 30.1286 0.577393 36.8436 0.577393H38.204C37.702 0.577393 37.2437 0.781096 36.9163 1.10848C36.5889 1.43586 36.3852 1.89419 36.3852 2.39617C36.3852 3.40014 37.2001 4.21495 38.204 4.21495Z" fill="#0F3780"/>
<path d="M83.9419 64.7148V68.3524H77.7289C76.725 68.3524 75.9102 67.5376 75.9102 66.5336C75.9102 66.0316 76.1139 65.5733 76.4412 65.2459C76.7759 64.9185 77.227 64.7148 77.7289 64.7148H83.9419Z" fill="#0A2555"/>
<path d="M97.4523 66.5336C97.4523 67.0356 97.2486 67.4939 96.9212 67.8213C96.5938 68.1487 96.1355 68.3524 95.6335 68.3524H83.9424V64.7148H95.6335C96.6374 64.7148 97.4523 65.5297 97.4523 66.5336Z" fill="#0F3780"/>
<path d="M74.3909 2.39617C74.3909 2.89815 74.1872 3.35648 73.8598 3.68386C73.5325 4.01124 73.0741 4.21495 72.5721 4.21495H38.2045C37.2006 4.21495 36.3857 3.40014 36.3857 2.39617C36.3857 1.89419 36.5894 1.43586 36.9168 1.10848C37.2442 0.781096 37.7025 0.577393 38.2045 0.577393H72.5721C73.5761 0.577393 74.3909 1.3922 74.3909 2.39617Z" fill="#0A2555"/>
<path d="M97.4523 66.5336C97.4523 67.0356 97.2486 67.4939 96.9212 67.8213C96.5938 68.1487 96.1355 68.3524 95.6335 68.3524H83.9424V64.7148H95.6335C96.6374 64.7148 97.4523 65.5297 97.4523 66.5336Z" fill="#0A2555"/>
<path d="M83.9422 66.5334V76.5949C83.9422 77.5989 83.1274 78.4137 82.1235 78.4137C81.1195 78.4137 80.3047 77.5989 80.3047 76.5949V66.5334H83.9422Z" fill="#0A2555"/>
<path d="M4.1942 56.4645V64.7145C4.1942 65.7185 3.37938 66.5333 2.37542 66.5333C1.37145 66.5333 0.556641 65.7185 0.556641 64.7145V56.4645C0.556641 55.4606 1.37145 54.6458 2.37542 54.6458C2.8774 54.6458 3.33573 54.8495 3.66311 55.1768C3.99049 55.5042 4.1942 55.9625 4.1942 56.4645Z" fill="#0F3780"/>
<path d="M50.0799 39.7963C53.105 39.7963 55.5573 37.3539 55.5573 34.341C55.5573 31.3282 53.105 28.8857 50.0799 28.8857C47.0548 28.8857 44.6025 31.3282 44.6025 34.341C44.6025 37.3539 47.0548 39.7963 50.0799 39.7963Z" fill="#0EB4DA"/>
<path d="M68.5282 40.0438C71.5532 40.0438 74.0056 37.6014 74.0056 34.5886C74.0056 31.5757 71.5532 29.1333 68.5282 29.1333C65.5031 29.1333 63.0508 31.5757 63.0508 34.5886C63.0508 37.6014 65.5031 40.0438 68.5282 40.0438Z" fill="#0EB4DA"/>
<path d="M86.9705 40.0438C89.9956 40.0438 92.4479 37.6014 92.4479 34.5886C92.4479 31.5757 89.9956 29.1333 86.9705 29.1333C83.9455 29.1333 81.4932 31.5757 81.4932 34.5886C81.4932 37.6014 83.9455 40.0438 86.9705 40.0438Z" fill="#0EB4DA"/>
</g>
<defs>
<clipPath id="clip0_367_17935">
<rect width="108.887" height="109.483" fill="white" transform="translate(0.556641 0.577148)"/>
</clipPath>
</defs>
</svg>
