<?xml version="1.0" encoding="utf-8"?>
<!-- Generator: Adobe Illustrator 27.8.1, SVG Export Plug-In . SVG Version: 6.00 Build 0)  -->
<svg version="1.1" id="Layer_1" xmlns="http://www.w3.org/2000/svg" xmlns:xlink="http://www.w3.org/1999/xlink" x="0px" y="0px"
	 viewBox="0 0 105 104" style="enable-background:new 0 0 105 104;" xml:space="preserve">
<style type="text/css">
	.st0{fill:#0F3780;}
	.st1{fill:#0EB4DA;}
	.st2{fill:#0A2555;}
</style>
<g id="Final">
	<g id="Medium">
		<path class="st0" d="M62.6,98.2H32c-3.8,0-7-3.1-7-7V33.2c0-3.8,3.1-7,7-7h4.2V34h-2.1c-0.9,0-1.6,0.7-1.6,1.6
			c0,0.9,0.7,1.6,1.6,1.6h11.7c0.9,0,1.6-0.7,1.6-1.6c0-0.9-0.7-1.6-1.6-1.6h-6.4V10.7c0-2.3,1.8-4.1,4.1-4.1h6
			c0.9,0,1.6-0.7,1.6-1.6s-0.7-1.6-1.6-1.6h-6c-4,0-7.3,3.3-7.3,7.3V23H32c-5.6,0-10.2,4.6-10.2,10.2v58.1c0,5.6,4.6,10.2,10.2,10.2
			h30.6c0.9,0,1.6-0.7,1.6-1.6C64.2,98.9,63.5,98.2,62.6,98.2z"/>
		<path class="st0" d="M70.8,84.2H45.9c-0.9,0-1.6,0.7-1.6,1.6c0,0.9,0.7,1.6,1.6,1.6h24.9c0.9,0,1.6-0.7,1.6-1.6
			C72.4,84.9,71.7,84.2,70.8,84.2z"/>
		<path class="st0" d="M32.6,46.6v19.3c0,0.9,0.7,1.6,1.6,1.6h27.6c0.9,0,1.6-0.7,1.6-1.6c0-0.9-0.7-1.6-1.6-1.6h-26V48.2h20.6
			c0.9,0,1.6-0.7,1.6-1.6c0-0.9-0.7-1.6-1.6-1.6H34.2C33.3,45,32.6,45.7,32.6,46.6z"/>
		<path class="st0" d="M56.9,76.3c0,0.9,0.7,1.6,1.6,1.6h12.4c0.9,0,1.6-0.7,1.6-1.6s-0.7-1.6-1.6-1.6H58.5
			C57.6,74.7,56.9,75.4,56.9,76.3z"/>
	</g>
	<g id="Light">
		<path class="st1" d="M73,23h-4v-5.8h9.8c0.9,0,1.6-0.7,1.6-1.6v-4.9c0-4-3.3-7.3-7.3-7.3H48.2c-0.9,0-1.6,0.7-1.6,1.6
			s0.7,1.6,1.6,1.6H67c-0.8,1.2-1.3,2.6-1.3,4.1V34H54.3c-0.9,0-1.6,0.7-1.6,1.6c0,0.9,0.7,1.6,1.6,1.6h16.5c0.9,0,1.6-0.7,1.6-1.6
			c0-0.9-0.7-1.6-1.6-1.6H69v-7.8h4c3.8,0,7,3.1,7,7v58.1c0,0.9,0.7,1.6,1.6,1.6c0.9,0,1.6-0.7,1.6-1.6V33.2
			C83.2,27.5,78.6,23,73,23L73,23z M77.2,10.7v3.2H69v-3.2c0-2.3,1.8-4.1,4.1-4.1C75.4,6.6,77.2,8.4,77.2,10.7L77.2,10.7z"/>
		<path class="st1" d="M71.8,45H58.5c-0.9,0-1.6,0.7-1.6,1.6c0,0.9,0.7,1.6,1.6,1.6h11.7v16.1h-4.3c-0.9,0-1.6,0.7-1.6,1.6
			c0,0.9,0.7,1.6,1.6,1.6h5.9c0.9,0,1.6-0.7,1.6-1.6V46.6C73.4,45.7,72.7,45,71.8,45z"/>
		<circle class="st1" cx="35.1" cy="85.8" r="3.1"/>
	</g>
	<g id="Dark">
		<path class="st2" d="M81.6,89.6c-0.9,0-1.6,0.7-1.6,1.6c0,3.8-3.1,7-7,7H62.6c-0.9,0-1.6,0.7-1.6,1.6c0,0.9,0.7,1.6,1.6,1.6H73
			c5.6,0,10.2-4.6,10.2-10.2C83.2,90.3,82.5,89.6,81.6,89.6z"/>
		<path class="st2" d="M58.4,35.6c0-0.9-0.7-1.6-1.6-1.6H45.8c-0.9,0-1.6,0.7-1.6,1.6c0,0.9,0.7,1.6,1.6,1.6h10.9
			C57.7,37.2,58.4,36.5,58.4,35.6z"/>
		<path class="st2" d="M51.1,5c0-0.9-0.7-1.6-1.6-1.6h-6c-0.9,0-1.6,0.7-1.6,1.6s0.7,1.6,1.6,1.6h6C50.4,6.6,51.1,5.9,51.1,5z"/>
		<path class="st2" d="M71.8,67.5c0.9,0,1.6-0.7,1.6-1.6v-3.7c0-0.9-0.7-1.6-1.6-1.6s-1.6,0.7-1.6,1.6v2.1h-8.4
			c-0.9,0-1.6,0.7-1.6,1.6c0,0.9,0.7,1.6,1.6,1.6H71.8z"/>
		<path class="st2" d="M68.7,46.6c0-0.9-0.7-1.6-1.6-1.6H56.4c-0.9,0-1.6,0.7-1.6,1.6c0,0.9,0.7,1.6,1.6,1.6h10.8
			C68,48.2,68.7,47.5,68.7,46.6z"/>
	</g>
</g>
</svg>
